<mxfile host="app.diagrams.net" agent="Mozilla/5.0 (Windows NT 10.0; Win64; x64) AppleWebKit/537.36 (KHTML, like Gecko) Chrome/134.0.0.0 Safari/537.36 OPR/119.0.0.0" version="27.1.4" pages="3">
  <diagram name="PÃ¡gina-1" id="xbS6HUOcRYVPAaxrUvXU">
    <mxGraphModel dx="1393" dy="903" grid="1" gridSize="10" guides="1" tooltips="1" connect="1" arrows="1" fold="1" page="1" pageScale="1" pageWidth="827" pageHeight="1169" math="0" shadow="0">
      <root>
        <mxCell id="0" />
        <mxCell id="1" parent="0" />
        <mxCell id="-Fm5pNs9VPhXjQLM4HIY-1" value="CUSTOMER" style="shape=table;startSize=25;container=1;collapsible=0;childLayout=tableLayout;fixedRows=1;rowLines=1;fontStyle=1;align=center;resizeLast=1;" vertex="1" parent="1">
          <mxGeometry x="148" y="20" width="126" height="179" as="geometry" />
        </mxCell>
        <mxCell id="-Fm5pNs9VPhXjQLM4HIY-2" style="shape=tableRow;horizontal=0;startSize=0;swimlaneHead=0;swimlaneBody=0;fillColor=none;collapsible=0;dropTarget=0;points=[[0,0.5],[1,0.5]];portConstraint=eastwest;top=0;left=0;right=0;bottom=0;" vertex="1" parent="-Fm5pNs9VPhXjQLM4HIY-1">
          <mxGeometry y="25" width="126" height="22" as="geometry" />
        </mxCell>
        <mxCell id="-Fm5pNs9VPhXjQLM4HIY-3" value="int" style="shape=partialRectangle;connectable=0;fillColor=none;top=0;left=0;bottom=0;right=0;align=left;spacingLeft=2;overflow=hidden;fontSize=11;" vertex="1" parent="-Fm5pNs9VPhXjQLM4HIY-2">
          <mxGeometry width="36" height="22" as="geometry">
            <mxRectangle width="36" height="22" as="alternateBounds" />
          </mxGeometry>
        </mxCell>
        <mxCell id="-Fm5pNs9VPhXjQLM4HIY-4" value="customer_id" style="shape=partialRectangle;connectable=0;fillColor=none;top=0;left=0;bottom=0;right=0;align=left;spacingLeft=2;overflow=hidden;fontSize=11;" vertex="1" parent="-Fm5pNs9VPhXjQLM4HIY-2">
          <mxGeometry x="36" width="90" height="22" as="geometry">
            <mxRectangle width="90" height="22" as="alternateBounds" />
          </mxGeometry>
        </mxCell>
        <mxCell id="-Fm5pNs9VPhXjQLM4HIY-5" style="shape=tableRow;horizontal=0;startSize=0;swimlaneHead=0;swimlaneBody=0;fillColor=none;collapsible=0;dropTarget=0;points=[[0,0.5],[1,0.5]];portConstraint=eastwest;top=0;left=0;right=0;bottom=0;" vertex="1" parent="-Fm5pNs9VPhXjQLM4HIY-1">
          <mxGeometry y="47" width="126" height="22" as="geometry" />
        </mxCell>
        <mxCell id="-Fm5pNs9VPhXjQLM4HIY-6" value="string" style="shape=partialRectangle;connectable=0;fillColor=none;top=0;left=0;bottom=0;right=0;align=left;spacingLeft=2;overflow=hidden;fontSize=11;" vertex="1" parent="-Fm5pNs9VPhXjQLM4HIY-5">
          <mxGeometry width="36" height="22" as="geometry">
            <mxRectangle width="36" height="22" as="alternateBounds" />
          </mxGeometry>
        </mxCell>
        <mxCell id="-Fm5pNs9VPhXjQLM4HIY-7" value="username" style="shape=partialRectangle;connectable=0;fillColor=none;top=0;left=0;bottom=0;right=0;align=left;spacingLeft=2;overflow=hidden;fontSize=11;" vertex="1" parent="-Fm5pNs9VPhXjQLM4HIY-5">
          <mxGeometry x="36" width="90" height="22" as="geometry">
            <mxRectangle width="90" height="22" as="alternateBounds" />
          </mxGeometry>
        </mxCell>
        <mxCell id="-Fm5pNs9VPhXjQLM4HIY-8" style="shape=tableRow;horizontal=0;startSize=0;swimlaneHead=0;swimlaneBody=0;fillColor=none;collapsible=0;dropTarget=0;points=[[0,0.5],[1,0.5]];portConstraint=eastwest;top=0;left=0;right=0;bottom=0;" vertex="1" parent="-Fm5pNs9VPhXjQLM4HIY-1">
          <mxGeometry y="69" width="126" height="22" as="geometry" />
        </mxCell>
        <mxCell id="-Fm5pNs9VPhXjQLM4HIY-9" value="string" style="shape=partialRectangle;connectable=0;fillColor=none;top=0;left=0;bottom=0;right=0;align=left;spacingLeft=2;overflow=hidden;fontSize=11;" vertex="1" parent="-Fm5pNs9VPhXjQLM4HIY-8">
          <mxGeometry width="36" height="22" as="geometry">
            <mxRectangle width="36" height="22" as="alternateBounds" />
          </mxGeometry>
        </mxCell>
        <mxCell id="-Fm5pNs9VPhXjQLM4HIY-10" value="name" style="shape=partialRectangle;connectable=0;fillColor=none;top=0;left=0;bottom=0;right=0;align=left;spacingLeft=2;overflow=hidden;fontSize=11;" vertex="1" parent="-Fm5pNs9VPhXjQLM4HIY-8">
          <mxGeometry x="36" width="90" height="22" as="geometry">
            <mxRectangle width="90" height="22" as="alternateBounds" />
          </mxGeometry>
        </mxCell>
        <mxCell id="-Fm5pNs9VPhXjQLM4HIY-11" style="shape=tableRow;horizontal=0;startSize=0;swimlaneHead=0;swimlaneBody=0;fillColor=none;collapsible=0;dropTarget=0;points=[[0,0.5],[1,0.5]];portConstraint=eastwest;top=0;left=0;right=0;bottom=0;" vertex="1" parent="-Fm5pNs9VPhXjQLM4HIY-1">
          <mxGeometry y="91" width="126" height="22" as="geometry" />
        </mxCell>
        <mxCell id="-Fm5pNs9VPhXjQLM4HIY-12" value="date" style="shape=partialRectangle;connectable=0;fillColor=none;top=0;left=0;bottom=0;right=0;align=left;spacingLeft=2;overflow=hidden;fontSize=11;" vertex="1" parent="-Fm5pNs9VPhXjQLM4HIY-11">
          <mxGeometry width="36" height="22" as="geometry">
            <mxRectangle width="36" height="22" as="alternateBounds" />
          </mxGeometry>
        </mxCell>
        <mxCell id="-Fm5pNs9VPhXjQLM4HIY-13" value="birthdate" style="shape=partialRectangle;connectable=0;fillColor=none;top=0;left=0;bottom=0;right=0;align=left;spacingLeft=2;overflow=hidden;fontSize=11;" vertex="1" parent="-Fm5pNs9VPhXjQLM4HIY-11">
          <mxGeometry x="36" width="90" height="22" as="geometry">
            <mxRectangle width="90" height="22" as="alternateBounds" />
          </mxGeometry>
        </mxCell>
        <mxCell id="-Fm5pNs9VPhXjQLM4HIY-14" style="shape=tableRow;horizontal=0;startSize=0;swimlaneHead=0;swimlaneBody=0;fillColor=none;collapsible=0;dropTarget=0;points=[[0,0.5],[1,0.5]];portConstraint=eastwest;top=0;left=0;right=0;bottom=0;" vertex="1" parent="-Fm5pNs9VPhXjQLM4HIY-1">
          <mxGeometry y="113" width="126" height="22" as="geometry" />
        </mxCell>
        <mxCell id="-Fm5pNs9VPhXjQLM4HIY-15" value="string" style="shape=partialRectangle;connectable=0;fillColor=none;top=0;left=0;bottom=0;right=0;align=left;spacingLeft=2;overflow=hidden;fontSize=11;" vertex="1" parent="-Fm5pNs9VPhXjQLM4HIY-14">
          <mxGeometry width="36" height="22" as="geometry">
            <mxRectangle width="36" height="22" as="alternateBounds" />
          </mxGeometry>
        </mxCell>
        <mxCell id="-Fm5pNs9VPhXjQLM4HIY-16" value="email" style="shape=partialRectangle;connectable=0;fillColor=none;top=0;left=0;bottom=0;right=0;align=left;spacingLeft=2;overflow=hidden;fontSize=11;" vertex="1" parent="-Fm5pNs9VPhXjQLM4HIY-14">
          <mxGeometry x="36" width="90" height="22" as="geometry">
            <mxRectangle width="90" height="22" as="alternateBounds" />
          </mxGeometry>
        </mxCell>
        <mxCell id="-Fm5pNs9VPhXjQLM4HIY-17" style="shape=tableRow;horizontal=0;startSize=0;swimlaneHead=0;swimlaneBody=0;fillColor=none;collapsible=0;dropTarget=0;points=[[0,0.5],[1,0.5]];portConstraint=eastwest;top=0;left=0;right=0;bottom=0;" vertex="1" parent="-Fm5pNs9VPhXjQLM4HIY-1">
          <mxGeometry y="135" width="126" height="22" as="geometry" />
        </mxCell>
        <mxCell id="-Fm5pNs9VPhXjQLM4HIY-18" value="string" style="shape=partialRectangle;connectable=0;fillColor=none;top=0;left=0;bottom=0;right=0;align=left;spacingLeft=2;overflow=hidden;fontSize=11;" vertex="1" parent="-Fm5pNs9VPhXjQLM4HIY-17">
          <mxGeometry width="36" height="22" as="geometry">
            <mxRectangle width="36" height="22" as="alternateBounds" />
          </mxGeometry>
        </mxCell>
        <mxCell id="-Fm5pNs9VPhXjQLM4HIY-19" value="address" style="shape=partialRectangle;connectable=0;fillColor=none;top=0;left=0;bottom=0;right=0;align=left;spacingLeft=2;overflow=hidden;fontSize=11;" vertex="1" parent="-Fm5pNs9VPhXjQLM4HIY-17">
          <mxGeometry x="36" width="90" height="22" as="geometry">
            <mxRectangle width="90" height="22" as="alternateBounds" />
          </mxGeometry>
        </mxCell>
        <mxCell id="-Fm5pNs9VPhXjQLM4HIY-20" style="shape=tableRow;horizontal=0;startSize=0;swimlaneHead=0;swimlaneBody=0;fillColor=none;collapsible=0;dropTarget=0;points=[[0,0.5],[1,0.5]];portConstraint=eastwest;top=0;left=0;right=0;bottom=0;" vertex="1" parent="-Fm5pNs9VPhXjQLM4HIY-1">
          <mxGeometry y="157" width="126" height="22" as="geometry" />
        </mxCell>
        <mxCell id="-Fm5pNs9VPhXjQLM4HIY-21" value="string" style="shape=partialRectangle;connectable=0;fillColor=none;top=0;left=0;bottom=0;right=0;align=left;spacingLeft=2;overflow=hidden;fontSize=11;" vertex="1" parent="-Fm5pNs9VPhXjQLM4HIY-20">
          <mxGeometry width="36" height="22" as="geometry">
            <mxRectangle width="36" height="22" as="alternateBounds" />
          </mxGeometry>
        </mxCell>
        <mxCell id="-Fm5pNs9VPhXjQLM4HIY-22" value="tier" style="shape=partialRectangle;connectable=0;fillColor=none;top=0;left=0;bottom=0;right=0;align=left;spacingLeft=2;overflow=hidden;fontSize=11;" vertex="1" parent="-Fm5pNs9VPhXjQLM4HIY-20">
          <mxGeometry x="36" width="90" height="22" as="geometry">
            <mxRectangle width="90" height="22" as="alternateBounds" />
          </mxGeometry>
        </mxCell>
        <mxCell id="-Fm5pNs9VPhXjQLM4HIY-23" value="ACCOUNT" style="shape=table;startSize=25;container=1;collapsible=0;childLayout=tableLayout;fixedRows=1;rowLines=1;fontStyle=1;align=center;resizeLast=1;" vertex="1" parent="1">
          <mxGeometry x="143" y="298" width="135" height="91" as="geometry" />
        </mxCell>
        <mxCell id="-Fm5pNs9VPhXjQLM4HIY-24" style="shape=tableRow;horizontal=0;startSize=0;swimlaneHead=0;swimlaneBody=0;fillColor=none;collapsible=0;dropTarget=0;points=[[0,0.5],[1,0.5]];portConstraint=eastwest;top=0;left=0;right=0;bottom=0;" vertex="1" parent="-Fm5pNs9VPhXjQLM4HIY-23">
          <mxGeometry y="25" width="135" height="22" as="geometry" />
        </mxCell>
        <mxCell id="-Fm5pNs9VPhXjQLM4HIY-25" value="int" style="shape=partialRectangle;connectable=0;fillColor=none;top=0;left=0;bottom=0;right=0;align=left;spacingLeft=2;overflow=hidden;fontSize=11;" vertex="1" parent="-Fm5pNs9VPhXjQLM4HIY-24">
          <mxGeometry width="42" height="22" as="geometry">
            <mxRectangle width="42" height="22" as="alternateBounds" />
          </mxGeometry>
        </mxCell>
        <mxCell id="-Fm5pNs9VPhXjQLM4HIY-26" value="account_id" style="shape=partialRectangle;connectable=0;fillColor=none;top=0;left=0;bottom=0;right=0;align=left;spacingLeft=2;overflow=hidden;fontSize=11;" vertex="1" parent="-Fm5pNs9VPhXjQLM4HIY-24">
          <mxGeometry x="42" width="93" height="22" as="geometry">
            <mxRectangle width="93" height="22" as="alternateBounds" />
          </mxGeometry>
        </mxCell>
        <mxCell id="-Fm5pNs9VPhXjQLM4HIY-27" style="shape=tableRow;horizontal=0;startSize=0;swimlaneHead=0;swimlaneBody=0;fillColor=none;collapsible=0;dropTarget=0;points=[[0,0.5],[1,0.5]];portConstraint=eastwest;top=0;left=0;right=0;bottom=0;" vertex="1" parent="-Fm5pNs9VPhXjQLM4HIY-23">
          <mxGeometry y="47" width="135" height="22" as="geometry" />
        </mxCell>
        <mxCell id="-Fm5pNs9VPhXjQLM4HIY-28" value="int" style="shape=partialRectangle;connectable=0;fillColor=none;top=0;left=0;bottom=0;right=0;align=left;spacingLeft=2;overflow=hidden;fontSize=11;" vertex="1" parent="-Fm5pNs9VPhXjQLM4HIY-27">
          <mxGeometry width="42" height="22" as="geometry">
            <mxRectangle width="42" height="22" as="alternateBounds" />
          </mxGeometry>
        </mxCell>
        <mxCell id="-Fm5pNs9VPhXjQLM4HIY-29" value="customer_id" style="shape=partialRectangle;connectable=0;fillColor=none;top=0;left=0;bottom=0;right=0;align=left;spacingLeft=2;overflow=hidden;fontSize=11;" vertex="1" parent="-Fm5pNs9VPhXjQLM4HIY-27">
          <mxGeometry x="42" width="93" height="22" as="geometry">
            <mxRectangle width="93" height="22" as="alternateBounds" />
          </mxGeometry>
        </mxCell>
        <mxCell id="-Fm5pNs9VPhXjQLM4HIY-30" style="shape=tableRow;horizontal=0;startSize=0;swimlaneHead=0;swimlaneBody=0;fillColor=none;collapsible=0;dropTarget=0;points=[[0,0.5],[1,0.5]];portConstraint=eastwest;top=0;left=0;right=0;bottom=0;" vertex="1" parent="-Fm5pNs9VPhXjQLM4HIY-23">
          <mxGeometry y="69" width="135" height="22" as="geometry" />
        </mxCell>
        <mxCell id="-Fm5pNs9VPhXjQLM4HIY-31" value="decimal" style="shape=partialRectangle;connectable=0;fillColor=none;top=0;left=0;bottom=0;right=0;align=left;spacingLeft=2;overflow=hidden;fontSize=11;" vertex="1" parent="-Fm5pNs9VPhXjQLM4HIY-30">
          <mxGeometry width="42" height="22" as="geometry">
            <mxRectangle width="42" height="22" as="alternateBounds" />
          </mxGeometry>
        </mxCell>
        <mxCell id="-Fm5pNs9VPhXjQLM4HIY-32" value="limit" style="shape=partialRectangle;connectable=0;fillColor=none;top=0;left=0;bottom=0;right=0;align=left;spacingLeft=2;overflow=hidden;fontSize=11;" vertex="1" parent="-Fm5pNs9VPhXjQLM4HIY-30">
          <mxGeometry x="42" width="93" height="22" as="geometry">
            <mxRectangle width="93" height="22" as="alternateBounds" />
          </mxGeometry>
        </mxCell>
        <mxCell id="-Fm5pNs9VPhXjQLM4HIY-33" value="PRODUCT" style="shape=table;startSize=25;container=1;collapsible=0;childLayout=tableLayout;fixedRows=1;rowLines=1;fontStyle=1;align=center;resizeLast=1;" vertex="1" parent="1">
          <mxGeometry x="20" y="543" width="136" height="91" as="geometry" />
        </mxCell>
        <mxCell id="-Fm5pNs9VPhXjQLM4HIY-34" style="shape=tableRow;horizontal=0;startSize=0;swimlaneHead=0;swimlaneBody=0;fillColor=none;collapsible=0;dropTarget=0;points=[[0,0.5],[1,0.5]];portConstraint=eastwest;top=0;left=0;right=0;bottom=0;" vertex="1" parent="-Fm5pNs9VPhXjQLM4HIY-33">
          <mxGeometry y="25" width="136" height="22" as="geometry" />
        </mxCell>
        <mxCell id="-Fm5pNs9VPhXjQLM4HIY-35" value="int" style="shape=partialRectangle;connectable=0;fillColor=none;top=0;left=0;bottom=0;right=0;align=left;spacingLeft=2;overflow=hidden;fontSize=11;" vertex="1" parent="-Fm5pNs9VPhXjQLM4HIY-34">
          <mxGeometry width="36" height="22" as="geometry">
            <mxRectangle width="36" height="22" as="alternateBounds" />
          </mxGeometry>
        </mxCell>
        <mxCell id="-Fm5pNs9VPhXjQLM4HIY-36" value="product_id" style="shape=partialRectangle;connectable=0;fillColor=none;top=0;left=0;bottom=0;right=0;align=left;spacingLeft=2;overflow=hidden;fontSize=11;" vertex="1" parent="-Fm5pNs9VPhXjQLM4HIY-34">
          <mxGeometry x="36" width="100" height="22" as="geometry">
            <mxRectangle width="100" height="22" as="alternateBounds" />
          </mxGeometry>
        </mxCell>
        <mxCell id="-Fm5pNs9VPhXjQLM4HIY-37" style="shape=tableRow;horizontal=0;startSize=0;swimlaneHead=0;swimlaneBody=0;fillColor=none;collapsible=0;dropTarget=0;points=[[0,0.5],[1,0.5]];portConstraint=eastwest;top=0;left=0;right=0;bottom=0;" vertex="1" parent="-Fm5pNs9VPhXjQLM4HIY-33">
          <mxGeometry y="47" width="136" height="22" as="geometry" />
        </mxCell>
        <mxCell id="-Fm5pNs9VPhXjQLM4HIY-38" value="int" style="shape=partialRectangle;connectable=0;fillColor=none;top=0;left=0;bottom=0;right=0;align=left;spacingLeft=2;overflow=hidden;fontSize=11;" vertex="1" parent="-Fm5pNs9VPhXjQLM4HIY-37">
          <mxGeometry width="36" height="22" as="geometry">
            <mxRectangle width="36" height="22" as="alternateBounds" />
          </mxGeometry>
        </mxCell>
        <mxCell id="-Fm5pNs9VPhXjQLM4HIY-39" value="account_id" style="shape=partialRectangle;connectable=0;fillColor=none;top=0;left=0;bottom=0;right=0;align=left;spacingLeft=2;overflow=hidden;fontSize=11;" vertex="1" parent="-Fm5pNs9VPhXjQLM4HIY-37">
          <mxGeometry x="36" width="100" height="22" as="geometry">
            <mxRectangle width="100" height="22" as="alternateBounds" />
          </mxGeometry>
        </mxCell>
        <mxCell id="-Fm5pNs9VPhXjQLM4HIY-40" style="shape=tableRow;horizontal=0;startSize=0;swimlaneHead=0;swimlaneBody=0;fillColor=none;collapsible=0;dropTarget=0;points=[[0,0.5],[1,0.5]];portConstraint=eastwest;top=0;left=0;right=0;bottom=0;" vertex="1" parent="-Fm5pNs9VPhXjQLM4HIY-33">
          <mxGeometry y="69" width="136" height="22" as="geometry" />
        </mxCell>
        <mxCell id="-Fm5pNs9VPhXjQLM4HIY-41" value="string" style="shape=partialRectangle;connectable=0;fillColor=none;top=0;left=0;bottom=0;right=0;align=left;spacingLeft=2;overflow=hidden;fontSize=11;" vertex="1" parent="-Fm5pNs9VPhXjQLM4HIY-40">
          <mxGeometry width="36" height="22" as="geometry">
            <mxRectangle width="36" height="22" as="alternateBounds" />
          </mxGeometry>
        </mxCell>
        <mxCell id="-Fm5pNs9VPhXjQLM4HIY-42" value="product_name" style="shape=partialRectangle;connectable=0;fillColor=none;top=0;left=0;bottom=0;right=0;align=left;spacingLeft=2;overflow=hidden;fontSize=11;" vertex="1" parent="-Fm5pNs9VPhXjQLM4HIY-40">
          <mxGeometry x="36" width="100" height="22" as="geometry">
            <mxRectangle width="100" height="22" as="alternateBounds" />
          </mxGeometry>
        </mxCell>
        <mxCell id="-Fm5pNs9VPhXjQLM4HIY-43" value="TRANSACTION" style="shape=table;startSize=25;container=1;collapsible=0;childLayout=tableLayout;fixedRows=1;rowLines=1;fontStyle=1;align=center;resizeLast=1;" vertex="1" parent="1">
          <mxGeometry x="256" y="488" width="158" height="201" as="geometry" />
        </mxCell>
        <mxCell id="-Fm5pNs9VPhXjQLM4HIY-44" style="shape=tableRow;horizontal=0;startSize=0;swimlaneHead=0;swimlaneBody=0;fillColor=none;collapsible=0;dropTarget=0;points=[[0,0.5],[1,0.5]];portConstraint=eastwest;top=0;left=0;right=0;bottom=0;" vertex="1" parent="-Fm5pNs9VPhXjQLM4HIY-43">
          <mxGeometry y="25" width="158" height="22" as="geometry" />
        </mxCell>
        <mxCell id="-Fm5pNs9VPhXjQLM4HIY-45" value="int" style="shape=partialRectangle;connectable=0;fillColor=none;top=0;left=0;bottom=0;right=0;align=left;spacingLeft=2;overflow=hidden;fontSize=11;" vertex="1" parent="-Fm5pNs9VPhXjQLM4HIY-44">
          <mxGeometry width="42" height="22" as="geometry">
            <mxRectangle width="42" height="22" as="alternateBounds" />
          </mxGeometry>
        </mxCell>
        <mxCell id="-Fm5pNs9VPhXjQLM4HIY-46" value="transaction_id" style="shape=partialRectangle;connectable=0;fillColor=none;top=0;left=0;bottom=0;right=0;align=left;spacingLeft=2;overflow=hidden;fontSize=11;" vertex="1" parent="-Fm5pNs9VPhXjQLM4HIY-44">
          <mxGeometry x="42" width="116" height="22" as="geometry">
            <mxRectangle width="116" height="22" as="alternateBounds" />
          </mxGeometry>
        </mxCell>
        <mxCell id="-Fm5pNs9VPhXjQLM4HIY-47" style="shape=tableRow;horizontal=0;startSize=0;swimlaneHead=0;swimlaneBody=0;fillColor=none;collapsible=0;dropTarget=0;points=[[0,0.5],[1,0.5]];portConstraint=eastwest;top=0;left=0;right=0;bottom=0;" vertex="1" parent="-Fm5pNs9VPhXjQLM4HIY-43">
          <mxGeometry y="47" width="158" height="22" as="geometry" />
        </mxCell>
        <mxCell id="-Fm5pNs9VPhXjQLM4HIY-48" value="int" style="shape=partialRectangle;connectable=0;fillColor=none;top=0;left=0;bottom=0;right=0;align=left;spacingLeft=2;overflow=hidden;fontSize=11;" vertex="1" parent="-Fm5pNs9VPhXjQLM4HIY-47">
          <mxGeometry width="42" height="22" as="geometry">
            <mxRectangle width="42" height="22" as="alternateBounds" />
          </mxGeometry>
        </mxCell>
        <mxCell id="-Fm5pNs9VPhXjQLM4HIY-49" value="account_id" style="shape=partialRectangle;connectable=0;fillColor=none;top=0;left=0;bottom=0;right=0;align=left;spacingLeft=2;overflow=hidden;fontSize=11;" vertex="1" parent="-Fm5pNs9VPhXjQLM4HIY-47">
          <mxGeometry x="42" width="116" height="22" as="geometry">
            <mxRectangle width="116" height="22" as="alternateBounds" />
          </mxGeometry>
        </mxCell>
        <mxCell id="-Fm5pNs9VPhXjQLM4HIY-50" style="shape=tableRow;horizontal=0;startSize=0;swimlaneHead=0;swimlaneBody=0;fillColor=none;collapsible=0;dropTarget=0;points=[[0,0.5],[1,0.5]];portConstraint=eastwest;top=0;left=0;right=0;bottom=0;" vertex="1" parent="-Fm5pNs9VPhXjQLM4HIY-43">
          <mxGeometry y="69" width="158" height="22" as="geometry" />
        </mxCell>
        <mxCell id="-Fm5pNs9VPhXjQLM4HIY-51" value="date" style="shape=partialRectangle;connectable=0;fillColor=none;top=0;left=0;bottom=0;right=0;align=left;spacingLeft=2;overflow=hidden;fontSize=11;" vertex="1" parent="-Fm5pNs9VPhXjQLM4HIY-50">
          <mxGeometry width="42" height="22" as="geometry">
            <mxRectangle width="42" height="22" as="alternateBounds" />
          </mxGeometry>
        </mxCell>
        <mxCell id="-Fm5pNs9VPhXjQLM4HIY-52" value="date" style="shape=partialRectangle;connectable=0;fillColor=none;top=0;left=0;bottom=0;right=0;align=left;spacingLeft=2;overflow=hidden;fontSize=11;" vertex="1" parent="-Fm5pNs9VPhXjQLM4HIY-50">
          <mxGeometry x="42" width="116" height="22" as="geometry">
            <mxRectangle width="116" height="22" as="alternateBounds" />
          </mxGeometry>
        </mxCell>
        <mxCell id="-Fm5pNs9VPhXjQLM4HIY-53" style="shape=tableRow;horizontal=0;startSize=0;swimlaneHead=0;swimlaneBody=0;fillColor=none;collapsible=0;dropTarget=0;points=[[0,0.5],[1,0.5]];portConstraint=eastwest;top=0;left=0;right=0;bottom=0;" vertex="1" parent="-Fm5pNs9VPhXjQLM4HIY-43">
          <mxGeometry y="91" width="158" height="22" as="geometry" />
        </mxCell>
        <mxCell id="-Fm5pNs9VPhXjQLM4HIY-54" value="decimal" style="shape=partialRectangle;connectable=0;fillColor=none;top=0;left=0;bottom=0;right=0;align=left;spacingLeft=2;overflow=hidden;fontSize=11;" vertex="1" parent="-Fm5pNs9VPhXjQLM4HIY-53">
          <mxGeometry width="42" height="22" as="geometry">
            <mxRectangle width="42" height="22" as="alternateBounds" />
          </mxGeometry>
        </mxCell>
        <mxCell id="-Fm5pNs9VPhXjQLM4HIY-55" value="amount" style="shape=partialRectangle;connectable=0;fillColor=none;top=0;left=0;bottom=0;right=0;align=left;spacingLeft=2;overflow=hidden;fontSize=11;" vertex="1" parent="-Fm5pNs9VPhXjQLM4HIY-53">
          <mxGeometry x="42" width="116" height="22" as="geometry">
            <mxRectangle width="116" height="22" as="alternateBounds" />
          </mxGeometry>
        </mxCell>
        <mxCell id="-Fm5pNs9VPhXjQLM4HIY-56" style="shape=tableRow;horizontal=0;startSize=0;swimlaneHead=0;swimlaneBody=0;fillColor=none;collapsible=0;dropTarget=0;points=[[0,0.5],[1,0.5]];portConstraint=eastwest;top=0;left=0;right=0;bottom=0;" vertex="1" parent="-Fm5pNs9VPhXjQLM4HIY-43">
          <mxGeometry y="113" width="158" height="22" as="geometry" />
        </mxCell>
        <mxCell id="-Fm5pNs9VPhXjQLM4HIY-57" value="string" style="shape=partialRectangle;connectable=0;fillColor=none;top=0;left=0;bottom=0;right=0;align=left;spacingLeft=2;overflow=hidden;fontSize=11;" vertex="1" parent="-Fm5pNs9VPhXjQLM4HIY-56">
          <mxGeometry width="42" height="22" as="geometry">
            <mxRectangle width="42" height="22" as="alternateBounds" />
          </mxGeometry>
        </mxCell>
        <mxCell id="-Fm5pNs9VPhXjQLM4HIY-58" value="transaction_code" style="shape=partialRectangle;connectable=0;fillColor=none;top=0;left=0;bottom=0;right=0;align=left;spacingLeft=2;overflow=hidden;fontSize=11;" vertex="1" parent="-Fm5pNs9VPhXjQLM4HIY-56">
          <mxGeometry x="42" width="116" height="22" as="geometry">
            <mxRectangle width="116" height="22" as="alternateBounds" />
          </mxGeometry>
        </mxCell>
        <mxCell id="-Fm5pNs9VPhXjQLM4HIY-59" style="shape=tableRow;horizontal=0;startSize=0;swimlaneHead=0;swimlaneBody=0;fillColor=none;collapsible=0;dropTarget=0;points=[[0,0.5],[1,0.5]];portConstraint=eastwest;top=0;left=0;right=0;bottom=0;" vertex="1" parent="-Fm5pNs9VPhXjQLM4HIY-43">
          <mxGeometry y="135" width="158" height="22" as="geometry" />
        </mxCell>
        <mxCell id="-Fm5pNs9VPhXjQLM4HIY-60" value="string" style="shape=partialRectangle;connectable=0;fillColor=none;top=0;left=0;bottom=0;right=0;align=left;spacingLeft=2;overflow=hidden;fontSize=11;" vertex="1" parent="-Fm5pNs9VPhXjQLM4HIY-59">
          <mxGeometry width="42" height="22" as="geometry">
            <mxRectangle width="42" height="22" as="alternateBounds" />
          </mxGeometry>
        </mxCell>
        <mxCell id="-Fm5pNs9VPhXjQLM4HIY-61" value="symbol" style="shape=partialRectangle;connectable=0;fillColor=none;top=0;left=0;bottom=0;right=0;align=left;spacingLeft=2;overflow=hidden;fontSize=11;" vertex="1" parent="-Fm5pNs9VPhXjQLM4HIY-59">
          <mxGeometry x="42" width="116" height="22" as="geometry">
            <mxRectangle width="116" height="22" as="alternateBounds" />
          </mxGeometry>
        </mxCell>
        <mxCell id="-Fm5pNs9VPhXjQLM4HIY-62" style="shape=tableRow;horizontal=0;startSize=0;swimlaneHead=0;swimlaneBody=0;fillColor=none;collapsible=0;dropTarget=0;points=[[0,0.5],[1,0.5]];portConstraint=eastwest;top=0;left=0;right=0;bottom=0;" vertex="1" parent="-Fm5pNs9VPhXjQLM4HIY-43">
          <mxGeometry y="157" width="158" height="22" as="geometry" />
        </mxCell>
        <mxCell id="-Fm5pNs9VPhXjQLM4HIY-63" value="decimal" style="shape=partialRectangle;connectable=0;fillColor=none;top=0;left=0;bottom=0;right=0;align=left;spacingLeft=2;overflow=hidden;fontSize=11;" vertex="1" parent="-Fm5pNs9VPhXjQLM4HIY-62">
          <mxGeometry width="42" height="22" as="geometry">
            <mxRectangle width="42" height="22" as="alternateBounds" />
          </mxGeometry>
        </mxCell>
        <mxCell id="-Fm5pNs9VPhXjQLM4HIY-64" value="price" style="shape=partialRectangle;connectable=0;fillColor=none;top=0;left=0;bottom=0;right=0;align=left;spacingLeft=2;overflow=hidden;fontSize=11;" vertex="1" parent="-Fm5pNs9VPhXjQLM4HIY-62">
          <mxGeometry x="42" width="116" height="22" as="geometry">
            <mxRectangle width="116" height="22" as="alternateBounds" />
          </mxGeometry>
        </mxCell>
        <mxCell id="-Fm5pNs9VPhXjQLM4HIY-65" style="shape=tableRow;horizontal=0;startSize=0;swimlaneHead=0;swimlaneBody=0;fillColor=none;collapsible=0;dropTarget=0;points=[[0,0.5],[1,0.5]];portConstraint=eastwest;top=0;left=0;right=0;bottom=0;" vertex="1" parent="-Fm5pNs9VPhXjQLM4HIY-43">
          <mxGeometry y="179" width="158" height="22" as="geometry" />
        </mxCell>
        <mxCell id="-Fm5pNs9VPhXjQLM4HIY-66" value="decimal" style="shape=partialRectangle;connectable=0;fillColor=none;top=0;left=0;bottom=0;right=0;align=left;spacingLeft=2;overflow=hidden;fontSize=11;" vertex="1" parent="-Fm5pNs9VPhXjQLM4HIY-65">
          <mxGeometry width="42" height="22" as="geometry">
            <mxRectangle width="42" height="22" as="alternateBounds" />
          </mxGeometry>
        </mxCell>
        <mxCell id="-Fm5pNs9VPhXjQLM4HIY-67" value="total" style="shape=partialRectangle;connectable=0;fillColor=none;top=0;left=0;bottom=0;right=0;align=left;spacingLeft=2;overflow=hidden;fontSize=11;" vertex="1" parent="-Fm5pNs9VPhXjQLM4HIY-65">
          <mxGeometry x="42" width="116" height="22" as="geometry">
            <mxRectangle width="116" height="22" as="alternateBounds" />
          </mxGeometry>
        </mxCell>
        <mxCell id="-Fm5pNs9VPhXjQLM4HIY-68" value="has" style="curved=1;startArrow=ERmandOne;startSize=10;;endArrow=ERmany;endSize=10;;exitX=0.5;exitY=1;entryX=0.5;entryY=0;rounded=0;" edge="1" parent="1" source="-Fm5pNs9VPhXjQLM4HIY-1" target="-Fm5pNs9VPhXjQLM4HIY-23">
          <mxGeometry relative="1" as="geometry">
            <Array as="points" />
          </mxGeometry>
        </mxCell>
        <mxCell id="-Fm5pNs9VPhXjQLM4HIY-69" value="has" style="curved=1;startArrow=ERmandOne;startSize=10;;endArrow=ERmany;endSize=10;;exitX=0.07;exitY=1;entryX=0.5;entryY=0;rounded=0;" edge="1" parent="1" source="-Fm5pNs9VPhXjQLM4HIY-23" target="-Fm5pNs9VPhXjQLM4HIY-33">
          <mxGeometry relative="1" as="geometry">
            <Array as="points">
              <mxPoint x="88" y="438" />
            </Array>
          </mxGeometry>
        </mxCell>
        <mxCell id="-Fm5pNs9VPhXjQLM4HIY-70" value="has" style="curved=1;startArrow=ERmandOne;startSize=10;;endArrow=ERmany;endSize=10;;exitX=0.94;exitY=1;entryX=0.5;entryY=0;rounded=0;" edge="1" parent="1" source="-Fm5pNs9VPhXjQLM4HIY-23" target="-Fm5pNs9VPhXjQLM4HIY-43">
          <mxGeometry relative="1" as="geometry">
            <Array as="points">
              <mxPoint x="334" y="438" />
            </Array>
          </mxGeometry>
        </mxCell>
      </root>
    </mxGraphModel>
  </diagram>
  <diagram id="oFsFgHRtXtc6nK12_haO" name="PÃ¡gina-2">
    <mxGraphModel dx="1393" dy="903" grid="1" gridSize="10" guides="1" tooltips="1" connect="1" arrows="1" fold="1" page="1" pageScale="1" pageWidth="827" pageHeight="1169" math="0" shadow="0">
      <root>
        <mxCell id="0" />
        <mxCell id="1" parent="0" />
        <mxCell id="V75Jt1ztEAzrmL82g1pO-1" value="CUSTOMER" style="shape=table;startSize=25;container=1;collapsible=0;childLayout=tableLayout;fixedRows=1;rowLines=1;fontStyle=1;align=center;resizeLast=1;" vertex="1" parent="1">
          <mxGeometry x="271" y="20" width="126" height="157" as="geometry" />
        </mxCell>
        <mxCell id="V75Jt1ztEAzrmL82g1pO-2" style="shape=tableRow;horizontal=0;startSize=0;swimlaneHead=0;swimlaneBody=0;fillColor=none;collapsible=0;dropTarget=0;points=[[0,0.5],[1,0.5]];portConstraint=eastwest;top=0;left=0;right=0;bottom=0;" vertex="1" parent="V75Jt1ztEAzrmL82g1pO-1">
          <mxGeometry y="25" width="126" height="22" as="geometry" />
        </mxCell>
        <mxCell id="V75Jt1ztEAzrmL82g1pO-3" value="int" style="shape=partialRectangle;connectable=0;fillColor=none;top=0;left=0;bottom=0;right=0;align=left;spacingLeft=2;overflow=hidden;fontSize=11;" vertex="1" parent="V75Jt1ztEAzrmL82g1pO-2">
          <mxGeometry width="36" height="22" as="geometry">
            <mxRectangle width="36" height="22" as="alternateBounds" />
          </mxGeometry>
        </mxCell>
        <mxCell id="V75Jt1ztEAzrmL82g1pO-4" value="customer_id" style="shape=partialRectangle;connectable=0;fillColor=none;top=0;left=0;bottom=0;right=0;align=left;spacingLeft=2;overflow=hidden;fontSize=11;" vertex="1" parent="V75Jt1ztEAzrmL82g1pO-2">
          <mxGeometry x="36" width="90" height="22" as="geometry">
            <mxRectangle width="90" height="22" as="alternateBounds" />
          </mxGeometry>
        </mxCell>
        <mxCell id="V75Jt1ztEAzrmL82g1pO-5" style="shape=tableRow;horizontal=0;startSize=0;swimlaneHead=0;swimlaneBody=0;fillColor=none;collapsible=0;dropTarget=0;points=[[0,0.5],[1,0.5]];portConstraint=eastwest;top=0;left=0;right=0;bottom=0;" vertex="1" parent="V75Jt1ztEAzrmL82g1pO-1">
          <mxGeometry y="47" width="126" height="22" as="geometry" />
        </mxCell>
        <mxCell id="V75Jt1ztEAzrmL82g1pO-6" value="string" style="shape=partialRectangle;connectable=0;fillColor=none;top=0;left=0;bottom=0;right=0;align=left;spacingLeft=2;overflow=hidden;fontSize=11;" vertex="1" parent="V75Jt1ztEAzrmL82g1pO-5">
          <mxGeometry width="36" height="22" as="geometry">
            <mxRectangle width="36" height="22" as="alternateBounds" />
          </mxGeometry>
        </mxCell>
        <mxCell id="V75Jt1ztEAzrmL82g1pO-7" value="username" style="shape=partialRectangle;connectable=0;fillColor=none;top=0;left=0;bottom=0;right=0;align=left;spacingLeft=2;overflow=hidden;fontSize=11;" vertex="1" parent="V75Jt1ztEAzrmL82g1pO-5">
          <mxGeometry x="36" width="90" height="22" as="geometry">
            <mxRectangle width="90" height="22" as="alternateBounds" />
          </mxGeometry>
        </mxCell>
        <mxCell id="V75Jt1ztEAzrmL82g1pO-8" style="shape=tableRow;horizontal=0;startSize=0;swimlaneHead=0;swimlaneBody=0;fillColor=none;collapsible=0;dropTarget=0;points=[[0,0.5],[1,0.5]];portConstraint=eastwest;top=0;left=0;right=0;bottom=0;" vertex="1" parent="V75Jt1ztEAzrmL82g1pO-1">
          <mxGeometry y="69" width="126" height="22" as="geometry" />
        </mxCell>
        <mxCell id="V75Jt1ztEAzrmL82g1pO-9" value="string" style="shape=partialRectangle;connectable=0;fillColor=none;top=0;left=0;bottom=0;right=0;align=left;spacingLeft=2;overflow=hidden;fontSize=11;" vertex="1" parent="V75Jt1ztEAzrmL82g1pO-8">
          <mxGeometry width="36" height="22" as="geometry">
            <mxRectangle width="36" height="22" as="alternateBounds" />
          </mxGeometry>
        </mxCell>
        <mxCell id="V75Jt1ztEAzrmL82g1pO-10" value="name" style="shape=partialRectangle;connectable=0;fillColor=none;top=0;left=0;bottom=0;right=0;align=left;spacingLeft=2;overflow=hidden;fontSize=11;" vertex="1" parent="V75Jt1ztEAzrmL82g1pO-8">
          <mxGeometry x="36" width="90" height="22" as="geometry">
            <mxRectangle width="90" height="22" as="alternateBounds" />
          </mxGeometry>
        </mxCell>
        <mxCell id="V75Jt1ztEAzrmL82g1pO-11" style="shape=tableRow;horizontal=0;startSize=0;swimlaneHead=0;swimlaneBody=0;fillColor=none;collapsible=0;dropTarget=0;points=[[0,0.5],[1,0.5]];portConstraint=eastwest;top=0;left=0;right=0;bottom=0;" vertex="1" parent="V75Jt1ztEAzrmL82g1pO-1">
          <mxGeometry y="91" width="126" height="22" as="geometry" />
        </mxCell>
        <mxCell id="V75Jt1ztEAzrmL82g1pO-12" value="date" style="shape=partialRectangle;connectable=0;fillColor=none;top=0;left=0;bottom=0;right=0;align=left;spacingLeft=2;overflow=hidden;fontSize=11;" vertex="1" parent="V75Jt1ztEAzrmL82g1pO-11">
          <mxGeometry width="36" height="22" as="geometry">
            <mxRectangle width="36" height="22" as="alternateBounds" />
          </mxGeometry>
        </mxCell>
        <mxCell id="V75Jt1ztEAzrmL82g1pO-13" value="birthdate" style="shape=partialRectangle;connectable=0;fillColor=none;top=0;left=0;bottom=0;right=0;align=left;spacingLeft=2;overflow=hidden;fontSize=11;" vertex="1" parent="V75Jt1ztEAzrmL82g1pO-11">
          <mxGeometry x="36" width="90" height="22" as="geometry">
            <mxRectangle width="90" height="22" as="alternateBounds" />
          </mxGeometry>
        </mxCell>
        <mxCell id="V75Jt1ztEAzrmL82g1pO-14" style="shape=tableRow;horizontal=0;startSize=0;swimlaneHead=0;swimlaneBody=0;fillColor=none;collapsible=0;dropTarget=0;points=[[0,0.5],[1,0.5]];portConstraint=eastwest;top=0;left=0;right=0;bottom=0;" vertex="1" parent="V75Jt1ztEAzrmL82g1pO-1">
          <mxGeometry y="113" width="126" height="22" as="geometry" />
        </mxCell>
        <mxCell id="V75Jt1ztEAzrmL82g1pO-15" value="string" style="shape=partialRectangle;connectable=0;fillColor=none;top=0;left=0;bottom=0;right=0;align=left;spacingLeft=2;overflow=hidden;fontSize=11;" vertex="1" parent="V75Jt1ztEAzrmL82g1pO-14">
          <mxGeometry width="36" height="22" as="geometry">
            <mxRectangle width="36" height="22" as="alternateBounds" />
          </mxGeometry>
        </mxCell>
        <mxCell id="V75Jt1ztEAzrmL82g1pO-16" value="email" style="shape=partialRectangle;connectable=0;fillColor=none;top=0;left=0;bottom=0;right=0;align=left;spacingLeft=2;overflow=hidden;fontSize=11;" vertex="1" parent="V75Jt1ztEAzrmL82g1pO-14">
          <mxGeometry x="36" width="90" height="22" as="geometry">
            <mxRectangle width="90" height="22" as="alternateBounds" />
          </mxGeometry>
        </mxCell>
        <mxCell id="V75Jt1ztEAzrmL82g1pO-17" style="shape=tableRow;horizontal=0;startSize=0;swimlaneHead=0;swimlaneBody=0;fillColor=none;collapsible=0;dropTarget=0;points=[[0,0.5],[1,0.5]];portConstraint=eastwest;top=0;left=0;right=0;bottom=0;" vertex="1" parent="V75Jt1ztEAzrmL82g1pO-1">
          <mxGeometry y="135" width="126" height="22" as="geometry" />
        </mxCell>
        <mxCell id="V75Jt1ztEAzrmL82g1pO-18" value="string" style="shape=partialRectangle;connectable=0;fillColor=none;top=0;left=0;bottom=0;right=0;align=left;spacingLeft=2;overflow=hidden;fontSize=11;" vertex="1" parent="V75Jt1ztEAzrmL82g1pO-17">
          <mxGeometry width="36" height="22" as="geometry">
            <mxRectangle width="36" height="22" as="alternateBounds" />
          </mxGeometry>
        </mxCell>
        <mxCell id="V75Jt1ztEAzrmL82g1pO-19" value="address" style="shape=partialRectangle;connectable=0;fillColor=none;top=0;left=0;bottom=0;right=0;align=left;spacingLeft=2;overflow=hidden;fontSize=11;" vertex="1" parent="V75Jt1ztEAzrmL82g1pO-17">
          <mxGeometry x="36" width="90" height="22" as="geometry">
            <mxRectangle width="90" height="22" as="alternateBounds" />
          </mxGeometry>
        </mxCell>
        <mxCell id="V75Jt1ztEAzrmL82g1pO-20" value="ACCOUNT" style="shape=table;startSize=25;container=1;collapsible=0;childLayout=tableLayout;fixedRows=1;rowLines=1;fontStyle=1;align=center;resizeLast=1;" vertex="1" parent="1">
          <mxGeometry x="143" y="287" width="135" height="91" as="geometry" />
        </mxCell>
        <mxCell id="V75Jt1ztEAzrmL82g1pO-21" style="shape=tableRow;horizontal=0;startSize=0;swimlaneHead=0;swimlaneBody=0;fillColor=none;collapsible=0;dropTarget=0;points=[[0,0.5],[1,0.5]];portConstraint=eastwest;top=0;left=0;right=0;bottom=0;" vertex="1" parent="V75Jt1ztEAzrmL82g1pO-20">
          <mxGeometry y="25" width="135" height="22" as="geometry" />
        </mxCell>
        <mxCell id="V75Jt1ztEAzrmL82g1pO-22" value="int" style="shape=partialRectangle;connectable=0;fillColor=none;top=0;left=0;bottom=0;right=0;align=left;spacingLeft=2;overflow=hidden;fontSize=11;" vertex="1" parent="V75Jt1ztEAzrmL82g1pO-21">
          <mxGeometry width="42" height="22" as="geometry">
            <mxRectangle width="42" height="22" as="alternateBounds" />
          </mxGeometry>
        </mxCell>
        <mxCell id="V75Jt1ztEAzrmL82g1pO-23" value="account_id" style="shape=partialRectangle;connectable=0;fillColor=none;top=0;left=0;bottom=0;right=0;align=left;spacingLeft=2;overflow=hidden;fontSize=11;" vertex="1" parent="V75Jt1ztEAzrmL82g1pO-21">
          <mxGeometry x="42" width="93" height="22" as="geometry">
            <mxRectangle width="93" height="22" as="alternateBounds" />
          </mxGeometry>
        </mxCell>
        <mxCell id="V75Jt1ztEAzrmL82g1pO-24" style="shape=tableRow;horizontal=0;startSize=0;swimlaneHead=0;swimlaneBody=0;fillColor=none;collapsible=0;dropTarget=0;points=[[0,0.5],[1,0.5]];portConstraint=eastwest;top=0;left=0;right=0;bottom=0;" vertex="1" parent="V75Jt1ztEAzrmL82g1pO-20">
          <mxGeometry y="47" width="135" height="22" as="geometry" />
        </mxCell>
        <mxCell id="V75Jt1ztEAzrmL82g1pO-25" value="int" style="shape=partialRectangle;connectable=0;fillColor=none;top=0;left=0;bottom=0;right=0;align=left;spacingLeft=2;overflow=hidden;fontSize=11;" vertex="1" parent="V75Jt1ztEAzrmL82g1pO-24">
          <mxGeometry width="42" height="22" as="geometry">
            <mxRectangle width="42" height="22" as="alternateBounds" />
          </mxGeometry>
        </mxCell>
        <mxCell id="V75Jt1ztEAzrmL82g1pO-26" value="customer_id" style="shape=partialRectangle;connectable=0;fillColor=none;top=0;left=0;bottom=0;right=0;align=left;spacingLeft=2;overflow=hidden;fontSize=11;" vertex="1" parent="V75Jt1ztEAzrmL82g1pO-24">
          <mxGeometry x="42" width="93" height="22" as="geometry">
            <mxRectangle width="93" height="22" as="alternateBounds" />
          </mxGeometry>
        </mxCell>
        <mxCell id="V75Jt1ztEAzrmL82g1pO-27" style="shape=tableRow;horizontal=0;startSize=0;swimlaneHead=0;swimlaneBody=0;fillColor=none;collapsible=0;dropTarget=0;points=[[0,0.5],[1,0.5]];portConstraint=eastwest;top=0;left=0;right=0;bottom=0;" vertex="1" parent="V75Jt1ztEAzrmL82g1pO-20">
          <mxGeometry y="69" width="135" height="22" as="geometry" />
        </mxCell>
        <mxCell id="V75Jt1ztEAzrmL82g1pO-28" value="decimal" style="shape=partialRectangle;connectable=0;fillColor=none;top=0;left=0;bottom=0;right=0;align=left;spacingLeft=2;overflow=hidden;fontSize=11;" vertex="1" parent="V75Jt1ztEAzrmL82g1pO-27">
          <mxGeometry width="42" height="22" as="geometry">
            <mxRectangle width="42" height="22" as="alternateBounds" />
          </mxGeometry>
        </mxCell>
        <mxCell id="V75Jt1ztEAzrmL82g1pO-29" value="limit" style="shape=partialRectangle;connectable=0;fillColor=none;top=0;left=0;bottom=0;right=0;align=left;spacingLeft=2;overflow=hidden;fontSize=11;" vertex="1" parent="V75Jt1ztEAzrmL82g1pO-27">
          <mxGeometry x="42" width="93" height="22" as="geometry">
            <mxRectangle width="93" height="22" as="alternateBounds" />
          </mxGeometry>
        </mxCell>
        <mxCell id="V75Jt1ztEAzrmL82g1pO-30" value="PRODUCT" style="shape=table;startSize=25;container=1;collapsible=0;childLayout=tableLayout;fixedRows=1;rowLines=1;fontStyle=1;align=center;resizeLast=1;" vertex="1" parent="1">
          <mxGeometry x="20" y="543" width="136" height="91" as="geometry" />
        </mxCell>
        <mxCell id="V75Jt1ztEAzrmL82g1pO-31" style="shape=tableRow;horizontal=0;startSize=0;swimlaneHead=0;swimlaneBody=0;fillColor=none;collapsible=0;dropTarget=0;points=[[0,0.5],[1,0.5]];portConstraint=eastwest;top=0;left=0;right=0;bottom=0;" vertex="1" parent="V75Jt1ztEAzrmL82g1pO-30">
          <mxGeometry y="25" width="136" height="22" as="geometry" />
        </mxCell>
        <mxCell id="V75Jt1ztEAzrmL82g1pO-32" value="int" style="shape=partialRectangle;connectable=0;fillColor=none;top=0;left=0;bottom=0;right=0;align=left;spacingLeft=2;overflow=hidden;fontSize=11;" vertex="1" parent="V75Jt1ztEAzrmL82g1pO-31">
          <mxGeometry width="36" height="22" as="geometry">
            <mxRectangle width="36" height="22" as="alternateBounds" />
          </mxGeometry>
        </mxCell>
        <mxCell id="V75Jt1ztEAzrmL82g1pO-33" value="product_id" style="shape=partialRectangle;connectable=0;fillColor=none;top=0;left=0;bottom=0;right=0;align=left;spacingLeft=2;overflow=hidden;fontSize=11;" vertex="1" parent="V75Jt1ztEAzrmL82g1pO-31">
          <mxGeometry x="36" width="100" height="22" as="geometry">
            <mxRectangle width="100" height="22" as="alternateBounds" />
          </mxGeometry>
        </mxCell>
        <mxCell id="V75Jt1ztEAzrmL82g1pO-34" style="shape=tableRow;horizontal=0;startSize=0;swimlaneHead=0;swimlaneBody=0;fillColor=none;collapsible=0;dropTarget=0;points=[[0,0.5],[1,0.5]];portConstraint=eastwest;top=0;left=0;right=0;bottom=0;" vertex="1" parent="V75Jt1ztEAzrmL82g1pO-30">
          <mxGeometry y="47" width="136" height="22" as="geometry" />
        </mxCell>
        <mxCell id="V75Jt1ztEAzrmL82g1pO-35" value="int" style="shape=partialRectangle;connectable=0;fillColor=none;top=0;left=0;bottom=0;right=0;align=left;spacingLeft=2;overflow=hidden;fontSize=11;" vertex="1" parent="V75Jt1ztEAzrmL82g1pO-34">
          <mxGeometry width="36" height="22" as="geometry">
            <mxRectangle width="36" height="22" as="alternateBounds" />
          </mxGeometry>
        </mxCell>
        <mxCell id="V75Jt1ztEAzrmL82g1pO-36" value="account_id" style="shape=partialRectangle;connectable=0;fillColor=none;top=0;left=0;bottom=0;right=0;align=left;spacingLeft=2;overflow=hidden;fontSize=11;" vertex="1" parent="V75Jt1ztEAzrmL82g1pO-34">
          <mxGeometry x="36" width="100" height="22" as="geometry">
            <mxRectangle width="100" height="22" as="alternateBounds" />
          </mxGeometry>
        </mxCell>
        <mxCell id="V75Jt1ztEAzrmL82g1pO-37" style="shape=tableRow;horizontal=0;startSize=0;swimlaneHead=0;swimlaneBody=0;fillColor=none;collapsible=0;dropTarget=0;points=[[0,0.5],[1,0.5]];portConstraint=eastwest;top=0;left=0;right=0;bottom=0;" vertex="1" parent="V75Jt1ztEAzrmL82g1pO-30">
          <mxGeometry y="69" width="136" height="22" as="geometry" />
        </mxCell>
        <mxCell id="V75Jt1ztEAzrmL82g1pO-38" value="string" style="shape=partialRectangle;connectable=0;fillColor=none;top=0;left=0;bottom=0;right=0;align=left;spacingLeft=2;overflow=hidden;fontSize=11;" vertex="1" parent="V75Jt1ztEAzrmL82g1pO-37">
          <mxGeometry width="36" height="22" as="geometry">
            <mxRectangle width="36" height="22" as="alternateBounds" />
          </mxGeometry>
        </mxCell>
        <mxCell id="V75Jt1ztEAzrmL82g1pO-39" value="product_name" style="shape=partialRectangle;connectable=0;fillColor=none;top=0;left=0;bottom=0;right=0;align=left;spacingLeft=2;overflow=hidden;fontSize=11;" vertex="1" parent="V75Jt1ztEAzrmL82g1pO-37">
          <mxGeometry x="36" width="100" height="22" as="geometry">
            <mxRectangle width="100" height="22" as="alternateBounds" />
          </mxGeometry>
        </mxCell>
        <mxCell id="V75Jt1ztEAzrmL82g1pO-40" value="CUSTOMER_TIER" style="shape=table;startSize=25;container=1;collapsible=0;childLayout=tableLayout;fixedRows=1;rowLines=1;fontStyle=1;align=center;resizeLast=1;" vertex="1" parent="1">
          <mxGeometry x="512" y="276" width="136" height="113" as="geometry" />
        </mxCell>
        <mxCell id="V75Jt1ztEAzrmL82g1pO-41" style="shape=tableRow;horizontal=0;startSize=0;swimlaneHead=0;swimlaneBody=0;fillColor=none;collapsible=0;dropTarget=0;points=[[0,0.5],[1,0.5]];portConstraint=eastwest;top=0;left=0;right=0;bottom=0;" vertex="1" parent="V75Jt1ztEAzrmL82g1pO-40">
          <mxGeometry y="25" width="136" height="22" as="geometry" />
        </mxCell>
        <mxCell id="V75Jt1ztEAzrmL82g1pO-42" value="int" style="shape=partialRectangle;connectable=0;fillColor=none;top=0;left=0;bottom=0;right=0;align=left;spacingLeft=2;overflow=hidden;fontSize=11;" vertex="1" parent="V75Jt1ztEAzrmL82g1pO-41">
          <mxGeometry width="42" height="22" as="geometry">
            <mxRectangle width="42" height="22" as="alternateBounds" />
          </mxGeometry>
        </mxCell>
        <mxCell id="V75Jt1ztEAzrmL82g1pO-43" value="tier_id" style="shape=partialRectangle;connectable=0;fillColor=none;top=0;left=0;bottom=0;right=0;align=left;spacingLeft=2;overflow=hidden;fontSize=11;" vertex="1" parent="V75Jt1ztEAzrmL82g1pO-41">
          <mxGeometry x="42" width="94" height="22" as="geometry">
            <mxRectangle width="94" height="22" as="alternateBounds" />
          </mxGeometry>
        </mxCell>
        <mxCell id="V75Jt1ztEAzrmL82g1pO-44" style="shape=tableRow;horizontal=0;startSize=0;swimlaneHead=0;swimlaneBody=0;fillColor=none;collapsible=0;dropTarget=0;points=[[0,0.5],[1,0.5]];portConstraint=eastwest;top=0;left=0;right=0;bottom=0;" vertex="1" parent="V75Jt1ztEAzrmL82g1pO-40">
          <mxGeometry y="47" width="136" height="22" as="geometry" />
        </mxCell>
        <mxCell id="V75Jt1ztEAzrmL82g1pO-45" value="int" style="shape=partialRectangle;connectable=0;fillColor=none;top=0;left=0;bottom=0;right=0;align=left;spacingLeft=2;overflow=hidden;fontSize=11;" vertex="1" parent="V75Jt1ztEAzrmL82g1pO-44">
          <mxGeometry width="42" height="22" as="geometry">
            <mxRectangle width="42" height="22" as="alternateBounds" />
          </mxGeometry>
        </mxCell>
        <mxCell id="V75Jt1ztEAzrmL82g1pO-46" value="customer_id" style="shape=partialRectangle;connectable=0;fillColor=none;top=0;left=0;bottom=0;right=0;align=left;spacingLeft=2;overflow=hidden;fontSize=11;" vertex="1" parent="V75Jt1ztEAzrmL82g1pO-44">
          <mxGeometry x="42" width="94" height="22" as="geometry">
            <mxRectangle width="94" height="22" as="alternateBounds" />
          </mxGeometry>
        </mxCell>
        <mxCell id="V75Jt1ztEAzrmL82g1pO-47" style="shape=tableRow;horizontal=0;startSize=0;swimlaneHead=0;swimlaneBody=0;fillColor=none;collapsible=0;dropTarget=0;points=[[0,0.5],[1,0.5]];portConstraint=eastwest;top=0;left=0;right=0;bottom=0;" vertex="1" parent="V75Jt1ztEAzrmL82g1pO-40">
          <mxGeometry y="69" width="136" height="22" as="geometry" />
        </mxCell>
        <mxCell id="V75Jt1ztEAzrmL82g1pO-48" value="string" style="shape=partialRectangle;connectable=0;fillColor=none;top=0;left=0;bottom=0;right=0;align=left;spacingLeft=2;overflow=hidden;fontSize=11;" vertex="1" parent="V75Jt1ztEAzrmL82g1pO-47">
          <mxGeometry width="42" height="22" as="geometry">
            <mxRectangle width="42" height="22" as="alternateBounds" />
          </mxGeometry>
        </mxCell>
        <mxCell id="V75Jt1ztEAzrmL82g1pO-49" value="tier_name" style="shape=partialRectangle;connectable=0;fillColor=none;top=0;left=0;bottom=0;right=0;align=left;spacingLeft=2;overflow=hidden;fontSize=11;" vertex="1" parent="V75Jt1ztEAzrmL82g1pO-47">
          <mxGeometry x="42" width="94" height="22" as="geometry">
            <mxRectangle width="94" height="22" as="alternateBounds" />
          </mxGeometry>
        </mxCell>
        <mxCell id="V75Jt1ztEAzrmL82g1pO-50" style="shape=tableRow;horizontal=0;startSize=0;swimlaneHead=0;swimlaneBody=0;fillColor=none;collapsible=0;dropTarget=0;points=[[0,0.5],[1,0.5]];portConstraint=eastwest;top=0;left=0;right=0;bottom=0;" vertex="1" parent="V75Jt1ztEAzrmL82g1pO-40">
          <mxGeometry y="91" width="136" height="22" as="geometry" />
        </mxCell>
        <mxCell id="V75Jt1ztEAzrmL82g1pO-51" value="boolean" style="shape=partialRectangle;connectable=0;fillColor=none;top=0;left=0;bottom=0;right=0;align=left;spacingLeft=2;overflow=hidden;fontSize=11;" vertex="1" parent="V75Jt1ztEAzrmL82g1pO-50">
          <mxGeometry width="42" height="22" as="geometry">
            <mxRectangle width="42" height="22" as="alternateBounds" />
          </mxGeometry>
        </mxCell>
        <mxCell id="V75Jt1ztEAzrmL82g1pO-52" value="active" style="shape=partialRectangle;connectable=0;fillColor=none;top=0;left=0;bottom=0;right=0;align=left;spacingLeft=2;overflow=hidden;fontSize=11;" vertex="1" parent="V75Jt1ztEAzrmL82g1pO-50">
          <mxGeometry x="42" width="94" height="22" as="geometry">
            <mxRectangle width="94" height="22" as="alternateBounds" />
          </mxGeometry>
        </mxCell>
        <mxCell id="V75Jt1ztEAzrmL82g1pO-53" value="TIER_BENEFIT" style="shape=table;startSize=25;container=1;collapsible=0;childLayout=tableLayout;fixedRows=1;rowLines=1;fontStyle=1;align=center;resizeLast=1;" vertex="1" parent="1">
          <mxGeometry x="513" y="543" width="133" height="91" as="geometry" />
        </mxCell>
        <mxCell id="V75Jt1ztEAzrmL82g1pO-54" style="shape=tableRow;horizontal=0;startSize=0;swimlaneHead=0;swimlaneBody=0;fillColor=none;collapsible=0;dropTarget=0;points=[[0,0.5],[1,0.5]];portConstraint=eastwest;top=0;left=0;right=0;bottom=0;" vertex="1" parent="V75Jt1ztEAzrmL82g1pO-53">
          <mxGeometry y="25" width="133" height="22" as="geometry" />
        </mxCell>
        <mxCell id="V75Jt1ztEAzrmL82g1pO-55" value="int" style="shape=partialRectangle;connectable=0;fillColor=none;top=0;left=0;bottom=0;right=0;align=left;spacingLeft=2;overflow=hidden;fontSize=11;" vertex="1" parent="V75Jt1ztEAzrmL82g1pO-54">
          <mxGeometry width="36" height="22" as="geometry">
            <mxRectangle width="36" height="22" as="alternateBounds" />
          </mxGeometry>
        </mxCell>
        <mxCell id="V75Jt1ztEAzrmL82g1pO-56" value="benefit_id" style="shape=partialRectangle;connectable=0;fillColor=none;top=0;left=0;bottom=0;right=0;align=left;spacingLeft=2;overflow=hidden;fontSize=11;" vertex="1" parent="V75Jt1ztEAzrmL82g1pO-54">
          <mxGeometry x="36" width="97" height="22" as="geometry">
            <mxRectangle width="97" height="22" as="alternateBounds" />
          </mxGeometry>
        </mxCell>
        <mxCell id="V75Jt1ztEAzrmL82g1pO-57" style="shape=tableRow;horizontal=0;startSize=0;swimlaneHead=0;swimlaneBody=0;fillColor=none;collapsible=0;dropTarget=0;points=[[0,0.5],[1,0.5]];portConstraint=eastwest;top=0;left=0;right=0;bottom=0;" vertex="1" parent="V75Jt1ztEAzrmL82g1pO-53">
          <mxGeometry y="47" width="133" height="22" as="geometry" />
        </mxCell>
        <mxCell id="V75Jt1ztEAzrmL82g1pO-58" value="int" style="shape=partialRectangle;connectable=0;fillColor=none;top=0;left=0;bottom=0;right=0;align=left;spacingLeft=2;overflow=hidden;fontSize=11;" vertex="1" parent="V75Jt1ztEAzrmL82g1pO-57">
          <mxGeometry width="36" height="22" as="geometry">
            <mxRectangle width="36" height="22" as="alternateBounds" />
          </mxGeometry>
        </mxCell>
        <mxCell id="V75Jt1ztEAzrmL82g1pO-59" value="tier_id" style="shape=partialRectangle;connectable=0;fillColor=none;top=0;left=0;bottom=0;right=0;align=left;spacingLeft=2;overflow=hidden;fontSize=11;" vertex="1" parent="V75Jt1ztEAzrmL82g1pO-57">
          <mxGeometry x="36" width="97" height="22" as="geometry">
            <mxRectangle width="97" height="22" as="alternateBounds" />
          </mxGeometry>
        </mxCell>
        <mxCell id="V75Jt1ztEAzrmL82g1pO-60" style="shape=tableRow;horizontal=0;startSize=0;swimlaneHead=0;swimlaneBody=0;fillColor=none;collapsible=0;dropTarget=0;points=[[0,0.5],[1,0.5]];portConstraint=eastwest;top=0;left=0;right=0;bottom=0;" vertex="1" parent="V75Jt1ztEAzrmL82g1pO-53">
          <mxGeometry y="69" width="133" height="22" as="geometry" />
        </mxCell>
        <mxCell id="V75Jt1ztEAzrmL82g1pO-61" value="string" style="shape=partialRectangle;connectable=0;fillColor=none;top=0;left=0;bottom=0;right=0;align=left;spacingLeft=2;overflow=hidden;fontSize=11;" vertex="1" parent="V75Jt1ztEAzrmL82g1pO-60">
          <mxGeometry width="36" height="22" as="geometry">
            <mxRectangle width="36" height="22" as="alternateBounds" />
          </mxGeometry>
        </mxCell>
        <mxCell id="V75Jt1ztEAzrmL82g1pO-62" value="benefit_name" style="shape=partialRectangle;connectable=0;fillColor=none;top=0;left=0;bottom=0;right=0;align=left;spacingLeft=2;overflow=hidden;fontSize=11;" vertex="1" parent="V75Jt1ztEAzrmL82g1pO-60">
          <mxGeometry x="36" width="97" height="22" as="geometry">
            <mxRectangle width="97" height="22" as="alternateBounds" />
          </mxGeometry>
        </mxCell>
        <mxCell id="V75Jt1ztEAzrmL82g1pO-63" value="TRANSACTION" style="shape=table;startSize=25;container=1;collapsible=0;childLayout=tableLayout;fixedRows=1;rowLines=1;fontStyle=1;align=center;resizeLast=1;" vertex="1" parent="1">
          <mxGeometry x="256" y="488" width="158" height="201" as="geometry" />
        </mxCell>
        <mxCell id="V75Jt1ztEAzrmL82g1pO-64" style="shape=tableRow;horizontal=0;startSize=0;swimlaneHead=0;swimlaneBody=0;fillColor=none;collapsible=0;dropTarget=0;points=[[0,0.5],[1,0.5]];portConstraint=eastwest;top=0;left=0;right=0;bottom=0;" vertex="1" parent="V75Jt1ztEAzrmL82g1pO-63">
          <mxGeometry y="25" width="158" height="22" as="geometry" />
        </mxCell>
        <mxCell id="V75Jt1ztEAzrmL82g1pO-65" value="int" style="shape=partialRectangle;connectable=0;fillColor=none;top=0;left=0;bottom=0;right=0;align=left;spacingLeft=2;overflow=hidden;fontSize=11;" vertex="1" parent="V75Jt1ztEAzrmL82g1pO-64">
          <mxGeometry width="42" height="22" as="geometry">
            <mxRectangle width="42" height="22" as="alternateBounds" />
          </mxGeometry>
        </mxCell>
        <mxCell id="V75Jt1ztEAzrmL82g1pO-66" value="transaction_id" style="shape=partialRectangle;connectable=0;fillColor=none;top=0;left=0;bottom=0;right=0;align=left;spacingLeft=2;overflow=hidden;fontSize=11;" vertex="1" parent="V75Jt1ztEAzrmL82g1pO-64">
          <mxGeometry x="42" width="116" height="22" as="geometry">
            <mxRectangle width="116" height="22" as="alternateBounds" />
          </mxGeometry>
        </mxCell>
        <mxCell id="V75Jt1ztEAzrmL82g1pO-67" style="shape=tableRow;horizontal=0;startSize=0;swimlaneHead=0;swimlaneBody=0;fillColor=none;collapsible=0;dropTarget=0;points=[[0,0.5],[1,0.5]];portConstraint=eastwest;top=0;left=0;right=0;bottom=0;" vertex="1" parent="V75Jt1ztEAzrmL82g1pO-63">
          <mxGeometry y="47" width="158" height="22" as="geometry" />
        </mxCell>
        <mxCell id="V75Jt1ztEAzrmL82g1pO-68" value="int" style="shape=partialRectangle;connectable=0;fillColor=none;top=0;left=0;bottom=0;right=0;align=left;spacingLeft=2;overflow=hidden;fontSize=11;" vertex="1" parent="V75Jt1ztEAzrmL82g1pO-67">
          <mxGeometry width="42" height="22" as="geometry">
            <mxRectangle width="42" height="22" as="alternateBounds" />
          </mxGeometry>
        </mxCell>
        <mxCell id="V75Jt1ztEAzrmL82g1pO-69" value="account_id" style="shape=partialRectangle;connectable=0;fillColor=none;top=0;left=0;bottom=0;right=0;align=left;spacingLeft=2;overflow=hidden;fontSize=11;" vertex="1" parent="V75Jt1ztEAzrmL82g1pO-67">
          <mxGeometry x="42" width="116" height="22" as="geometry">
            <mxRectangle width="116" height="22" as="alternateBounds" />
          </mxGeometry>
        </mxCell>
        <mxCell id="V75Jt1ztEAzrmL82g1pO-70" style="shape=tableRow;horizontal=0;startSize=0;swimlaneHead=0;swimlaneBody=0;fillColor=none;collapsible=0;dropTarget=0;points=[[0,0.5],[1,0.5]];portConstraint=eastwest;top=0;left=0;right=0;bottom=0;" vertex="1" parent="V75Jt1ztEAzrmL82g1pO-63">
          <mxGeometry y="69" width="158" height="22" as="geometry" />
        </mxCell>
        <mxCell id="V75Jt1ztEAzrmL82g1pO-71" value="date" style="shape=partialRectangle;connectable=0;fillColor=none;top=0;left=0;bottom=0;right=0;align=left;spacingLeft=2;overflow=hidden;fontSize=11;" vertex="1" parent="V75Jt1ztEAzrmL82g1pO-70">
          <mxGeometry width="42" height="22" as="geometry">
            <mxRectangle width="42" height="22" as="alternateBounds" />
          </mxGeometry>
        </mxCell>
        <mxCell id="V75Jt1ztEAzrmL82g1pO-72" value="date" style="shape=partialRectangle;connectable=0;fillColor=none;top=0;left=0;bottom=0;right=0;align=left;spacingLeft=2;overflow=hidden;fontSize=11;" vertex="1" parent="V75Jt1ztEAzrmL82g1pO-70">
          <mxGeometry x="42" width="116" height="22" as="geometry">
            <mxRectangle width="116" height="22" as="alternateBounds" />
          </mxGeometry>
        </mxCell>
        <mxCell id="V75Jt1ztEAzrmL82g1pO-73" style="shape=tableRow;horizontal=0;startSize=0;swimlaneHead=0;swimlaneBody=0;fillColor=none;collapsible=0;dropTarget=0;points=[[0,0.5],[1,0.5]];portConstraint=eastwest;top=0;left=0;right=0;bottom=0;" vertex="1" parent="V75Jt1ztEAzrmL82g1pO-63">
          <mxGeometry y="91" width="158" height="22" as="geometry" />
        </mxCell>
        <mxCell id="V75Jt1ztEAzrmL82g1pO-74" value="decimal" style="shape=partialRectangle;connectable=0;fillColor=none;top=0;left=0;bottom=0;right=0;align=left;spacingLeft=2;overflow=hidden;fontSize=11;" vertex="1" parent="V75Jt1ztEAzrmL82g1pO-73">
          <mxGeometry width="42" height="22" as="geometry">
            <mxRectangle width="42" height="22" as="alternateBounds" />
          </mxGeometry>
        </mxCell>
        <mxCell id="V75Jt1ztEAzrmL82g1pO-75" value="amount" style="shape=partialRectangle;connectable=0;fillColor=none;top=0;left=0;bottom=0;right=0;align=left;spacingLeft=2;overflow=hidden;fontSize=11;" vertex="1" parent="V75Jt1ztEAzrmL82g1pO-73">
          <mxGeometry x="42" width="116" height="22" as="geometry">
            <mxRectangle width="116" height="22" as="alternateBounds" />
          </mxGeometry>
        </mxCell>
        <mxCell id="V75Jt1ztEAzrmL82g1pO-76" style="shape=tableRow;horizontal=0;startSize=0;swimlaneHead=0;swimlaneBody=0;fillColor=none;collapsible=0;dropTarget=0;points=[[0,0.5],[1,0.5]];portConstraint=eastwest;top=0;left=0;right=0;bottom=0;" vertex="1" parent="V75Jt1ztEAzrmL82g1pO-63">
          <mxGeometry y="113" width="158" height="22" as="geometry" />
        </mxCell>
        <mxCell id="V75Jt1ztEAzrmL82g1pO-77" value="string" style="shape=partialRectangle;connectable=0;fillColor=none;top=0;left=0;bottom=0;right=0;align=left;spacingLeft=2;overflow=hidden;fontSize=11;" vertex="1" parent="V75Jt1ztEAzrmL82g1pO-76">
          <mxGeometry width="42" height="22" as="geometry">
            <mxRectangle width="42" height="22" as="alternateBounds" />
          </mxGeometry>
        </mxCell>
        <mxCell id="V75Jt1ztEAzrmL82g1pO-78" value="transaction_code" style="shape=partialRectangle;connectable=0;fillColor=none;top=0;left=0;bottom=0;right=0;align=left;spacingLeft=2;overflow=hidden;fontSize=11;" vertex="1" parent="V75Jt1ztEAzrmL82g1pO-76">
          <mxGeometry x="42" width="116" height="22" as="geometry">
            <mxRectangle width="116" height="22" as="alternateBounds" />
          </mxGeometry>
        </mxCell>
        <mxCell id="V75Jt1ztEAzrmL82g1pO-79" style="shape=tableRow;horizontal=0;startSize=0;swimlaneHead=0;swimlaneBody=0;fillColor=none;collapsible=0;dropTarget=0;points=[[0,0.5],[1,0.5]];portConstraint=eastwest;top=0;left=0;right=0;bottom=0;" vertex="1" parent="V75Jt1ztEAzrmL82g1pO-63">
          <mxGeometry y="135" width="158" height="22" as="geometry" />
        </mxCell>
        <mxCell id="V75Jt1ztEAzrmL82g1pO-80" value="string" style="shape=partialRectangle;connectable=0;fillColor=none;top=0;left=0;bottom=0;right=0;align=left;spacingLeft=2;overflow=hidden;fontSize=11;" vertex="1" parent="V75Jt1ztEAzrmL82g1pO-79">
          <mxGeometry width="42" height="22" as="geometry">
            <mxRectangle width="42" height="22" as="alternateBounds" />
          </mxGeometry>
        </mxCell>
        <mxCell id="V75Jt1ztEAzrmL82g1pO-81" value="symbol" style="shape=partialRectangle;connectable=0;fillColor=none;top=0;left=0;bottom=0;right=0;align=left;spacingLeft=2;overflow=hidden;fontSize=11;" vertex="1" parent="V75Jt1ztEAzrmL82g1pO-79">
          <mxGeometry x="42" width="116" height="22" as="geometry">
            <mxRectangle width="116" height="22" as="alternateBounds" />
          </mxGeometry>
        </mxCell>
        <mxCell id="V75Jt1ztEAzrmL82g1pO-82" style="shape=tableRow;horizontal=0;startSize=0;swimlaneHead=0;swimlaneBody=0;fillColor=none;collapsible=0;dropTarget=0;points=[[0,0.5],[1,0.5]];portConstraint=eastwest;top=0;left=0;right=0;bottom=0;" vertex="1" parent="V75Jt1ztEAzrmL82g1pO-63">
          <mxGeometry y="157" width="158" height="22" as="geometry" />
        </mxCell>
        <mxCell id="V75Jt1ztEAzrmL82g1pO-83" value="decimal" style="shape=partialRectangle;connectable=0;fillColor=none;top=0;left=0;bottom=0;right=0;align=left;spacingLeft=2;overflow=hidden;fontSize=11;" vertex="1" parent="V75Jt1ztEAzrmL82g1pO-82">
          <mxGeometry width="42" height="22" as="geometry">
            <mxRectangle width="42" height="22" as="alternateBounds" />
          </mxGeometry>
        </mxCell>
        <mxCell id="V75Jt1ztEAzrmL82g1pO-84" value="price" style="shape=partialRectangle;connectable=0;fillColor=none;top=0;left=0;bottom=0;right=0;align=left;spacingLeft=2;overflow=hidden;fontSize=11;" vertex="1" parent="V75Jt1ztEAzrmL82g1pO-82">
          <mxGeometry x="42" width="116" height="22" as="geometry">
            <mxRectangle width="116" height="22" as="alternateBounds" />
          </mxGeometry>
        </mxCell>
        <mxCell id="V75Jt1ztEAzrmL82g1pO-85" style="shape=tableRow;horizontal=0;startSize=0;swimlaneHead=0;swimlaneBody=0;fillColor=none;collapsible=0;dropTarget=0;points=[[0,0.5],[1,0.5]];portConstraint=eastwest;top=0;left=0;right=0;bottom=0;" vertex="1" parent="V75Jt1ztEAzrmL82g1pO-63">
          <mxGeometry y="179" width="158" height="22" as="geometry" />
        </mxCell>
        <mxCell id="V75Jt1ztEAzrmL82g1pO-86" value="decimal" style="shape=partialRectangle;connectable=0;fillColor=none;top=0;left=0;bottom=0;right=0;align=left;spacingLeft=2;overflow=hidden;fontSize=11;" vertex="1" parent="V75Jt1ztEAzrmL82g1pO-85">
          <mxGeometry width="42" height="22" as="geometry">
            <mxRectangle width="42" height="22" as="alternateBounds" />
          </mxGeometry>
        </mxCell>
        <mxCell id="V75Jt1ztEAzrmL82g1pO-87" value="total" style="shape=partialRectangle;connectable=0;fillColor=none;top=0;left=0;bottom=0;right=0;align=left;spacingLeft=2;overflow=hidden;fontSize=11;" vertex="1" parent="V75Jt1ztEAzrmL82g1pO-85">
          <mxGeometry x="42" width="116" height="22" as="geometry">
            <mxRectangle width="116" height="22" as="alternateBounds" />
          </mxGeometry>
        </mxCell>
        <mxCell id="V75Jt1ztEAzrmL82g1pO-88" value="" style="curved=1;startArrow=ERmandOne;startSize=10;;endArrow=ERmany;endSize=10;;exitX=0;exitY=0.92;entryX=0.5;entryY=0;rounded=0;" edge="1" parent="1" source="V75Jt1ztEAzrmL82g1pO-1" target="V75Jt1ztEAzrmL82g1pO-20">
          <mxGeometry relative="1" as="geometry">
            <Array as="points" />
          </mxGeometry>
        </mxCell>
        <mxCell id="V75Jt1ztEAzrmL82g1pO-89" value="" style="curved=1;startArrow=ERmandOne;startSize=10;;endArrow=ERmany;endSize=10;;exitX=1;exitY=0.71;entryX=0.5;entryY=0;rounded=0;" edge="1" parent="1" source="V75Jt1ztEAzrmL82g1pO-1" target="V75Jt1ztEAzrmL82g1pO-40">
          <mxGeometry relative="1" as="geometry">
            <Array as="points">
              <mxPoint x="580" y="226" />
            </Array>
          </mxGeometry>
        </mxCell>
        <mxCell id="V75Jt1ztEAzrmL82g1pO-90" value="" style="curved=1;startArrow=ERmandOne;startSize=10;;endArrow=ERmany;endSize=10;;exitX=0.5;exitY=1;entryX=0.5;entryY=0;rounded=0;" edge="1" parent="1" source="V75Jt1ztEAzrmL82g1pO-40" target="V75Jt1ztEAzrmL82g1pO-53">
          <mxGeometry relative="1" as="geometry">
            <Array as="points" />
          </mxGeometry>
        </mxCell>
        <mxCell id="V75Jt1ztEAzrmL82g1pO-91" value="" style="curved=1;startArrow=ERmandOne;startSize=10;;endArrow=ERmany;endSize=10;;exitX=0.12;exitY=1;entryX=0.5;entryY=0;rounded=0;" edge="1" parent="1" source="V75Jt1ztEAzrmL82g1pO-20" target="V75Jt1ztEAzrmL82g1pO-30">
          <mxGeometry relative="1" as="geometry">
            <Array as="points" />
          </mxGeometry>
        </mxCell>
        <mxCell id="V75Jt1ztEAzrmL82g1pO-92" value="" style="curved=1;startArrow=ERmandOne;startSize=10;;endArrow=ERmany;endSize=10;;exitX=0.89;exitY=1;entryX=0.5;entryY=0;rounded=0;" edge="1" parent="1" source="V75Jt1ztEAzrmL82g1pO-20" target="V75Jt1ztEAzrmL82g1pO-63">
          <mxGeometry relative="1" as="geometry">
            <Array as="points">
              <mxPoint x="334" y="438" />
            </Array>
          </mxGeometry>
        </mxCell>
      </root>
    </mxGraphModel>
  </diagram>
  <diagram id="9pTEKvBwKy5YXoHGYDYF" name="PÃ¡gina-3">
    <mxGraphModel dx="3463" dy="2270" grid="1" gridSize="10" guides="1" tooltips="1" connect="1" arrows="1" fold="1" page="1" pageScale="1" pageWidth="827" pageHeight="1169" math="0" shadow="0">
      <root>
        <mxCell id="0" />
        <mxCell id="1" parent="0" />
        <mxCell id="PleD8S-8ki-CoMPB9bo7-1" value="FactTransaction" style="shape=table;startSize=25;container=1;collapsible=0;childLayout=tableLayout;fixedRows=1;rowLines=1;fontStyle=1;align=center;resizeLast=1;" vertex="1" parent="1">
          <mxGeometry x="762" y="20" width="295" height="385" as="geometry" />
        </mxCell>
        <mxCell id="PleD8S-8ki-CoMPB9bo7-2" style="shape=tableRow;horizontal=0;startSize=0;swimlaneHead=0;swimlaneBody=0;fillColor=none;collapsible=0;dropTarget=0;points=[[0,0.5],[1,0.5]];portConstraint=eastwest;top=0;left=0;right=0;bottom=0;" vertex="1" parent="PleD8S-8ki-CoMPB9bo7-1">
          <mxGeometry y="25" width="295" height="45" as="geometry" />
        </mxCell>
        <mxCell id="PleD8S-8ki-CoMPB9bo7-3" value="int" style="shape=partialRectangle;connectable=0;fillColor=none;top=0;left=0;bottom=0;right=0;align=left;spacingLeft=2;overflow=hidden;fontSize=11;" vertex="1" parent="PleD8S-8ki-CoMPB9bo7-2">
          <mxGeometry width="42" height="45" as="geometry">
            <mxRectangle width="42" height="45" as="alternateBounds" />
          </mxGeometry>
        </mxCell>
        <mxCell id="PleD8S-8ki-CoMPB9bo7-4" value="transaction_id" style="shape=partialRectangle;connectable=0;fillColor=none;top=0;left=0;bottom=0;right=0;align=left;spacingLeft=2;overflow=hidden;fontSize=11;" vertex="1" parent="PleD8S-8ki-CoMPB9bo7-2">
          <mxGeometry x="42" width="231" height="45" as="geometry">
            <mxRectangle width="231" height="45" as="alternateBounds" />
          </mxGeometry>
        </mxCell>
        <mxCell id="PleD8S-8ki-CoMPB9bo7-5" value="PK" style="shape=partialRectangle;connectable=0;fillColor=none;top=0;left=0;bottom=0;right=0;align=left;spacingLeft=2;overflow=hidden;fontSize=11;" vertex="1" parent="PleD8S-8ki-CoMPB9bo7-2">
          <mxGeometry x="273" width="22" height="45" as="geometry">
            <mxRectangle width="22" height="45" as="alternateBounds" />
          </mxGeometry>
        </mxCell>
        <mxCell id="PleD8S-8ki-CoMPB9bo7-6" style="shape=tableRow;horizontal=0;startSize=0;swimlaneHead=0;swimlaneBody=0;fillColor=none;collapsible=0;dropTarget=0;points=[[0,0.5],[1,0.5]];portConstraint=eastwest;top=0;left=0;right=0;bottom=0;" vertex="1" parent="PleD8S-8ki-CoMPB9bo7-1">
          <mxGeometry y="70" width="295" height="45" as="geometry" />
        </mxCell>
        <mxCell id="PleD8S-8ki-CoMPB9bo7-7" value="int" style="shape=partialRectangle;connectable=0;fillColor=none;top=0;left=0;bottom=0;right=0;align=left;spacingLeft=2;overflow=hidden;fontSize=11;" vertex="1" parent="PleD8S-8ki-CoMPB9bo7-6">
          <mxGeometry width="42" height="45" as="geometry">
            <mxRectangle width="42" height="45" as="alternateBounds" />
          </mxGeometry>
        </mxCell>
        <mxCell id="PleD8S-8ki-CoMPB9bo7-8" value="account_id" style="shape=partialRectangle;connectable=0;fillColor=none;top=0;left=0;bottom=0;right=0;align=left;spacingLeft=2;overflow=hidden;fontSize=11;" vertex="1" parent="PleD8S-8ki-CoMPB9bo7-6">
          <mxGeometry x="42" width="231" height="45" as="geometry">
            <mxRectangle width="231" height="45" as="alternateBounds" />
          </mxGeometry>
        </mxCell>
        <mxCell id="PleD8S-8ki-CoMPB9bo7-9" value="FK" style="shape=partialRectangle;connectable=0;fillColor=none;top=0;left=0;bottom=0;right=0;align=left;spacingLeft=2;overflow=hidden;fontSize=11;" vertex="1" parent="PleD8S-8ki-CoMPB9bo7-6">
          <mxGeometry x="273" width="22" height="45" as="geometry">
            <mxRectangle width="22" height="45" as="alternateBounds" />
          </mxGeometry>
        </mxCell>
        <mxCell id="PleD8S-8ki-CoMPB9bo7-10" style="shape=tableRow;horizontal=0;startSize=0;swimlaneHead=0;swimlaneBody=0;fillColor=none;collapsible=0;dropTarget=0;points=[[0,0.5],[1,0.5]];portConstraint=eastwest;top=0;left=0;right=0;bottom=0;" vertex="1" parent="PleD8S-8ki-CoMPB9bo7-1">
          <mxGeometry y="115" width="295" height="45" as="geometry" />
        </mxCell>
        <mxCell id="PleD8S-8ki-CoMPB9bo7-11" value="int" style="shape=partialRectangle;connectable=0;fillColor=none;top=0;left=0;bottom=0;right=0;align=left;spacingLeft=2;overflow=hidden;fontSize=11;" vertex="1" parent="PleD8S-8ki-CoMPB9bo7-10">
          <mxGeometry width="42" height="45" as="geometry">
            <mxRectangle width="42" height="45" as="alternateBounds" />
          </mxGeometry>
        </mxCell>
        <mxCell id="PleD8S-8ki-CoMPB9bo7-12" value="date_id" style="shape=partialRectangle;connectable=0;fillColor=none;top=0;left=0;bottom=0;right=0;align=left;spacingLeft=2;overflow=hidden;fontSize=11;" vertex="1" parent="PleD8S-8ki-CoMPB9bo7-10">
          <mxGeometry x="42" width="231" height="45" as="geometry">
            <mxRectangle width="231" height="45" as="alternateBounds" />
          </mxGeometry>
        </mxCell>
        <mxCell id="PleD8S-8ki-CoMPB9bo7-13" value="FK" style="shape=partialRectangle;connectable=0;fillColor=none;top=0;left=0;bottom=0;right=0;align=left;spacingLeft=2;overflow=hidden;fontSize=11;" vertex="1" parent="PleD8S-8ki-CoMPB9bo7-10">
          <mxGeometry x="273" width="22" height="45" as="geometry">
            <mxRectangle width="22" height="45" as="alternateBounds" />
          </mxGeometry>
        </mxCell>
        <mxCell id="PleD8S-8ki-CoMPB9bo7-14" style="shape=tableRow;horizontal=0;startSize=0;swimlaneHead=0;swimlaneBody=0;fillColor=none;collapsible=0;dropTarget=0;points=[[0,0.5],[1,0.5]];portConstraint=eastwest;top=0;left=0;right=0;bottom=0;" vertex="1" parent="PleD8S-8ki-CoMPB9bo7-1">
          <mxGeometry y="160" width="295" height="45" as="geometry" />
        </mxCell>
        <mxCell id="PleD8S-8ki-CoMPB9bo7-15" value="int" style="shape=partialRectangle;connectable=0;fillColor=none;top=0;left=0;bottom=0;right=0;align=left;spacingLeft=2;overflow=hidden;fontSize=11;" vertex="1" parent="PleD8S-8ki-CoMPB9bo7-14">
          <mxGeometry width="42" height="45" as="geometry">
            <mxRectangle width="42" height="45" as="alternateBounds" />
          </mxGeometry>
        </mxCell>
        <mxCell id="PleD8S-8ki-CoMPB9bo7-16" value="transaction_code_id" style="shape=partialRectangle;connectable=0;fillColor=none;top=0;left=0;bottom=0;right=0;align=left;spacingLeft=2;overflow=hidden;fontSize=11;" vertex="1" parent="PleD8S-8ki-CoMPB9bo7-14">
          <mxGeometry x="42" width="231" height="45" as="geometry">
            <mxRectangle width="231" height="45" as="alternateBounds" />
          </mxGeometry>
        </mxCell>
        <mxCell id="PleD8S-8ki-CoMPB9bo7-17" value="FK" style="shape=partialRectangle;connectable=0;fillColor=none;top=0;left=0;bottom=0;right=0;align=left;spacingLeft=2;overflow=hidden;fontSize=11;" vertex="1" parent="PleD8S-8ki-CoMPB9bo7-14">
          <mxGeometry x="273" width="22" height="45" as="geometry">
            <mxRectangle width="22" height="45" as="alternateBounds" />
          </mxGeometry>
        </mxCell>
        <mxCell id="PleD8S-8ki-CoMPB9bo7-18" style="shape=tableRow;horizontal=0;startSize=0;swimlaneHead=0;swimlaneBody=0;fillColor=none;collapsible=0;dropTarget=0;points=[[0,0.5],[1,0.5]];portConstraint=eastwest;top=0;left=0;right=0;bottom=0;" vertex="1" parent="PleD8S-8ki-CoMPB9bo7-1">
          <mxGeometry y="205" width="295" height="45" as="geometry" />
        </mxCell>
        <mxCell id="PleD8S-8ki-CoMPB9bo7-19" value="int" style="shape=partialRectangle;connectable=0;fillColor=none;top=0;left=0;bottom=0;right=0;align=left;spacingLeft=2;overflow=hidden;fontSize=11;" vertex="1" parent="PleD8S-8ki-CoMPB9bo7-18">
          <mxGeometry width="42" height="45" as="geometry">
            <mxRectangle width="42" height="45" as="alternateBounds" />
          </mxGeometry>
        </mxCell>
        <mxCell id="PleD8S-8ki-CoMPB9bo7-20" value="symbol_id" style="shape=partialRectangle;connectable=0;fillColor=none;top=0;left=0;bottom=0;right=0;align=left;spacingLeft=2;overflow=hidden;fontSize=11;" vertex="1" parent="PleD8S-8ki-CoMPB9bo7-18">
          <mxGeometry x="42" width="231" height="45" as="geometry">
            <mxRectangle width="231" height="45" as="alternateBounds" />
          </mxGeometry>
        </mxCell>
        <mxCell id="PleD8S-8ki-CoMPB9bo7-21" value="FK" style="shape=partialRectangle;connectable=0;fillColor=none;top=0;left=0;bottom=0;right=0;align=left;spacingLeft=2;overflow=hidden;fontSize=11;" vertex="1" parent="PleD8S-8ki-CoMPB9bo7-18">
          <mxGeometry x="273" width="22" height="45" as="geometry">
            <mxRectangle width="22" height="45" as="alternateBounds" />
          </mxGeometry>
        </mxCell>
        <mxCell id="PleD8S-8ki-CoMPB9bo7-22" style="shape=tableRow;horizontal=0;startSize=0;swimlaneHead=0;swimlaneBody=0;fillColor=none;collapsible=0;dropTarget=0;points=[[0,0.5],[1,0.5]];portConstraint=eastwest;top=0;left=0;right=0;bottom=0;" vertex="1" parent="PleD8S-8ki-CoMPB9bo7-1">
          <mxGeometry y="250" width="295" height="45" as="geometry" />
        </mxCell>
        <mxCell id="PleD8S-8ki-CoMPB9bo7-23" value="decimal" style="shape=partialRectangle;connectable=0;fillColor=none;top=0;left=0;bottom=0;right=0;align=left;spacingLeft=2;overflow=hidden;fontSize=11;" vertex="1" parent="PleD8S-8ki-CoMPB9bo7-22">
          <mxGeometry width="42" height="45" as="geometry">
            <mxRectangle width="42" height="45" as="alternateBounds" />
          </mxGeometry>
        </mxCell>
        <mxCell id="PleD8S-8ki-CoMPB9bo7-24" value="amount" style="shape=partialRectangle;connectable=0;fillColor=none;top=0;left=0;bottom=0;right=0;align=left;spacingLeft=2;overflow=hidden;fontSize=11;" vertex="1" parent="PleD8S-8ki-CoMPB9bo7-22">
          <mxGeometry x="42" width="231" height="45" as="geometry">
            <mxRectangle width="231" height="45" as="alternateBounds" />
          </mxGeometry>
        </mxCell>
        <mxCell id="PleD8S-8ki-CoMPB9bo7-25" value="" style="shape=partialRectangle;connectable=0;fillColor=none;top=0;left=0;bottom=0;right=0;align=left;spacingLeft=2;overflow=hidden;fontSize=11;" vertex="1" parent="PleD8S-8ki-CoMPB9bo7-22">
          <mxGeometry x="273" width="22" height="45" as="geometry">
            <mxRectangle width="22" height="45" as="alternateBounds" />
          </mxGeometry>
        </mxCell>
        <mxCell id="PleD8S-8ki-CoMPB9bo7-26" style="shape=tableRow;horizontal=0;startSize=0;swimlaneHead=0;swimlaneBody=0;fillColor=none;collapsible=0;dropTarget=0;points=[[0,0.5],[1,0.5]];portConstraint=eastwest;top=0;left=0;right=0;bottom=0;" vertex="1" parent="PleD8S-8ki-CoMPB9bo7-1">
          <mxGeometry y="295" width="295" height="45" as="geometry" />
        </mxCell>
        <mxCell id="PleD8S-8ki-CoMPB9bo7-27" value="decimal" style="shape=partialRectangle;connectable=0;fillColor=none;top=0;left=0;bottom=0;right=0;align=left;spacingLeft=2;overflow=hidden;fontSize=11;" vertex="1" parent="PleD8S-8ki-CoMPB9bo7-26">
          <mxGeometry width="42" height="45" as="geometry">
            <mxRectangle width="42" height="45" as="alternateBounds" />
          </mxGeometry>
        </mxCell>
        <mxCell id="PleD8S-8ki-CoMPB9bo7-28" value="price" style="shape=partialRectangle;connectable=0;fillColor=none;top=0;left=0;bottom=0;right=0;align=left;spacingLeft=2;overflow=hidden;fontSize=11;" vertex="1" parent="PleD8S-8ki-CoMPB9bo7-26">
          <mxGeometry x="42" width="231" height="45" as="geometry">
            <mxRectangle width="231" height="45" as="alternateBounds" />
          </mxGeometry>
        </mxCell>
        <mxCell id="PleD8S-8ki-CoMPB9bo7-29" value="" style="shape=partialRectangle;connectable=0;fillColor=none;top=0;left=0;bottom=0;right=0;align=left;spacingLeft=2;overflow=hidden;fontSize=11;" vertex="1" parent="PleD8S-8ki-CoMPB9bo7-26">
          <mxGeometry x="273" width="22" height="45" as="geometry">
            <mxRectangle width="22" height="45" as="alternateBounds" />
          </mxGeometry>
        </mxCell>
        <mxCell id="PleD8S-8ki-CoMPB9bo7-30" style="shape=tableRow;horizontal=0;startSize=0;swimlaneHead=0;swimlaneBody=0;fillColor=none;collapsible=0;dropTarget=0;points=[[0,0.5],[1,0.5]];portConstraint=eastwest;top=0;left=0;right=0;bottom=0;" vertex="1" parent="PleD8S-8ki-CoMPB9bo7-1">
          <mxGeometry y="340" width="295" height="45" as="geometry" />
        </mxCell>
        <mxCell id="PleD8S-8ki-CoMPB9bo7-31" value="decimal" style="shape=partialRectangle;connectable=0;fillColor=none;top=0;left=0;bottom=0;right=0;align=left;spacingLeft=2;overflow=hidden;fontSize=11;" vertex="1" parent="PleD8S-8ki-CoMPB9bo7-30">
          <mxGeometry width="42" height="45" as="geometry">
            <mxRectangle width="42" height="45" as="alternateBounds" />
          </mxGeometry>
        </mxCell>
        <mxCell id="PleD8S-8ki-CoMPB9bo7-32" value="total" style="shape=partialRectangle;connectable=0;fillColor=none;top=0;left=0;bottom=0;right=0;align=left;spacingLeft=2;overflow=hidden;fontSize=11;" vertex="1" parent="PleD8S-8ki-CoMPB9bo7-30">
          <mxGeometry x="42" width="231" height="45" as="geometry">
            <mxRectangle width="231" height="45" as="alternateBounds" />
          </mxGeometry>
        </mxCell>
        <mxCell id="PleD8S-8ki-CoMPB9bo7-33" value="" style="shape=partialRectangle;connectable=0;fillColor=none;top=0;left=0;bottom=0;right=0;align=left;spacingLeft=2;overflow=hidden;fontSize=11;" vertex="1" parent="PleD8S-8ki-CoMPB9bo7-30">
          <mxGeometry x="273" width="22" height="45" as="geometry">
            <mxRectangle width="22" height="45" as="alternateBounds" />
          </mxGeometry>
        </mxCell>
        <mxCell id="PleD8S-8ki-CoMPB9bo7-34" value="DimAccount" style="shape=table;startSize=25;container=1;collapsible=0;childLayout=tableLayout;fixedRows=1;rowLines=1;fontStyle=1;align=center;resizeLast=1;" vertex="1" parent="1">
          <mxGeometry x="191" y="551" width="248" height="172" as="geometry" />
        </mxCell>
        <mxCell id="PleD8S-8ki-CoMPB9bo7-35" style="shape=tableRow;horizontal=0;startSize=0;swimlaneHead=0;swimlaneBody=0;fillColor=none;collapsible=0;dropTarget=0;points=[[0,0.5],[1,0.5]];portConstraint=eastwest;top=0;left=0;right=0;bottom=0;" vertex="1" parent="PleD8S-8ki-CoMPB9bo7-34">
          <mxGeometry y="25" width="248" height="49" as="geometry" />
        </mxCell>
        <mxCell id="PleD8S-8ki-CoMPB9bo7-36" value="int" style="shape=partialRectangle;connectable=0;fillColor=none;top=0;left=0;bottom=0;right=0;align=left;spacingLeft=2;overflow=hidden;fontSize=11;" vertex="1" parent="PleD8S-8ki-CoMPB9bo7-35">
          <mxGeometry width="42" height="49" as="geometry">
            <mxRectangle width="42" height="49" as="alternateBounds" />
          </mxGeometry>
        </mxCell>
        <mxCell id="PleD8S-8ki-CoMPB9bo7-37" value="account_id" style="shape=partialRectangle;connectable=0;fillColor=none;top=0;left=0;bottom=0;right=0;align=left;spacingLeft=2;overflow=hidden;fontSize=11;" vertex="1" parent="PleD8S-8ki-CoMPB9bo7-35">
          <mxGeometry x="42" width="184" height="49" as="geometry">
            <mxRectangle width="184" height="49" as="alternateBounds" />
          </mxGeometry>
        </mxCell>
        <mxCell id="PleD8S-8ki-CoMPB9bo7-38" value="PK" style="shape=partialRectangle;connectable=0;fillColor=none;top=0;left=0;bottom=0;right=0;align=left;spacingLeft=2;overflow=hidden;fontSize=11;" vertex="1" parent="PleD8S-8ki-CoMPB9bo7-35">
          <mxGeometry x="226" width="22" height="49" as="geometry">
            <mxRectangle width="22" height="49" as="alternateBounds" />
          </mxGeometry>
        </mxCell>
        <mxCell id="PleD8S-8ki-CoMPB9bo7-39" style="shape=tableRow;horizontal=0;startSize=0;swimlaneHead=0;swimlaneBody=0;fillColor=none;collapsible=0;dropTarget=0;points=[[0,0.5],[1,0.5]];portConstraint=eastwest;top=0;left=0;right=0;bottom=0;" vertex="1" parent="PleD8S-8ki-CoMPB9bo7-34">
          <mxGeometry y="74" width="248" height="49" as="geometry" />
        </mxCell>
        <mxCell id="PleD8S-8ki-CoMPB9bo7-40" value="decimal" style="shape=partialRectangle;connectable=0;fillColor=none;top=0;left=0;bottom=0;right=0;align=left;spacingLeft=2;overflow=hidden;fontSize=11;" vertex="1" parent="PleD8S-8ki-CoMPB9bo7-39">
          <mxGeometry width="42" height="49" as="geometry">
            <mxRectangle width="42" height="49" as="alternateBounds" />
          </mxGeometry>
        </mxCell>
        <mxCell id="PleD8S-8ki-CoMPB9bo7-41" value="account_limit" style="shape=partialRectangle;connectable=0;fillColor=none;top=0;left=0;bottom=0;right=0;align=left;spacingLeft=2;overflow=hidden;fontSize=11;" vertex="1" parent="PleD8S-8ki-CoMPB9bo7-39">
          <mxGeometry x="42" width="184" height="49" as="geometry">
            <mxRectangle width="184" height="49" as="alternateBounds" />
          </mxGeometry>
        </mxCell>
        <mxCell id="PleD8S-8ki-CoMPB9bo7-42" value="" style="shape=partialRectangle;connectable=0;fillColor=none;top=0;left=0;bottom=0;right=0;align=left;spacingLeft=2;overflow=hidden;fontSize=11;" vertex="1" parent="PleD8S-8ki-CoMPB9bo7-39">
          <mxGeometry x="226" width="22" height="49" as="geometry">
            <mxRectangle width="22" height="49" as="alternateBounds" />
          </mxGeometry>
        </mxCell>
        <mxCell id="PleD8S-8ki-CoMPB9bo7-43" style="shape=tableRow;horizontal=0;startSize=0;swimlaneHead=0;swimlaneBody=0;fillColor=none;collapsible=0;dropTarget=0;points=[[0,0.5],[1,0.5]];portConstraint=eastwest;top=0;left=0;right=0;bottom=0;" vertex="1" parent="PleD8S-8ki-CoMPB9bo7-34">
          <mxGeometry y="123" width="248" height="49" as="geometry" />
        </mxCell>
        <mxCell id="PleD8S-8ki-CoMPB9bo7-44" value="int" style="shape=partialRectangle;connectable=0;fillColor=none;top=0;left=0;bottom=0;right=0;align=left;spacingLeft=2;overflow=hidden;fontSize=11;" vertex="1" parent="PleD8S-8ki-CoMPB9bo7-43">
          <mxGeometry width="42" height="49" as="geometry">
            <mxRectangle width="42" height="49" as="alternateBounds" />
          </mxGeometry>
        </mxCell>
        <mxCell id="PleD8S-8ki-CoMPB9bo7-45" value="customer_id" style="shape=partialRectangle;connectable=0;fillColor=none;top=0;left=0;bottom=0;right=0;align=left;spacingLeft=2;overflow=hidden;fontSize=11;" vertex="1" parent="PleD8S-8ki-CoMPB9bo7-43">
          <mxGeometry x="42" width="184" height="49" as="geometry">
            <mxRectangle width="184" height="49" as="alternateBounds" />
          </mxGeometry>
        </mxCell>
        <mxCell id="PleD8S-8ki-CoMPB9bo7-46" value="" style="shape=partialRectangle;connectable=0;fillColor=none;top=0;left=0;bottom=0;right=0;align=left;spacingLeft=2;overflow=hidden;fontSize=11;" vertex="1" parent="PleD8S-8ki-CoMPB9bo7-43">
          <mxGeometry x="226" width="22" height="49" as="geometry">
            <mxRectangle width="22" height="49" as="alternateBounds" />
          </mxGeometry>
        </mxCell>
        <mxCell id="PleD8S-8ki-CoMPB9bo7-47" value="DimCustomer" style="shape=table;startSize=25;container=1;collapsible=0;childLayout=tableLayout;fixedRows=1;rowLines=1;fontStyle=1;align=center;resizeLast=1;" vertex="1" parent="1">
          <mxGeometry x="26" y="867" width="222" height="342" as="geometry" />
        </mxCell>
        <mxCell id="PleD8S-8ki-CoMPB9bo7-48" style="shape=tableRow;horizontal=0;startSize=0;swimlaneHead=0;swimlaneBody=0;fillColor=none;collapsible=0;dropTarget=0;points=[[0,0.5],[1,0.5]];portConstraint=eastwest;top=0;left=0;right=0;bottom=0;" vertex="1" parent="PleD8S-8ki-CoMPB9bo7-47">
          <mxGeometry y="25" width="222" height="45" as="geometry" />
        </mxCell>
        <mxCell id="PleD8S-8ki-CoMPB9bo7-49" value="int" style="shape=partialRectangle;connectable=0;fillColor=none;top=0;left=0;bottom=0;right=0;align=left;spacingLeft=2;overflow=hidden;fontSize=11;" vertex="1" parent="PleD8S-8ki-CoMPB9bo7-48">
          <mxGeometry width="36" height="45" as="geometry">
            <mxRectangle width="36" height="45" as="alternateBounds" />
          </mxGeometry>
        </mxCell>
        <mxCell id="PleD8S-8ki-CoMPB9bo7-50" value="customer_id" style="shape=partialRectangle;connectable=0;fillColor=none;top=0;left=0;bottom=0;right=0;align=left;spacingLeft=2;overflow=hidden;fontSize=11;" vertex="1" parent="PleD8S-8ki-CoMPB9bo7-48">
          <mxGeometry x="36" width="164" height="45" as="geometry">
            <mxRectangle width="164" height="45" as="alternateBounds" />
          </mxGeometry>
        </mxCell>
        <mxCell id="PleD8S-8ki-CoMPB9bo7-51" value="PK" style="shape=partialRectangle;connectable=0;fillColor=none;top=0;left=0;bottom=0;right=0;align=left;spacingLeft=2;overflow=hidden;fontSize=11;" vertex="1" parent="PleD8S-8ki-CoMPB9bo7-48">
          <mxGeometry x="200" width="22" height="45" as="geometry">
            <mxRectangle width="22" height="45" as="alternateBounds" />
          </mxGeometry>
        </mxCell>
        <mxCell id="PleD8S-8ki-CoMPB9bo7-52" style="shape=tableRow;horizontal=0;startSize=0;swimlaneHead=0;swimlaneBody=0;fillColor=none;collapsible=0;dropTarget=0;points=[[0,0.5],[1,0.5]];portConstraint=eastwest;top=0;left=0;right=0;bottom=0;" vertex="1" parent="PleD8S-8ki-CoMPB9bo7-47">
          <mxGeometry y="70" width="222" height="45" as="geometry" />
        </mxCell>
        <mxCell id="PleD8S-8ki-CoMPB9bo7-53" value="string" style="shape=partialRectangle;connectable=0;fillColor=none;top=0;left=0;bottom=0;right=0;align=left;spacingLeft=2;overflow=hidden;fontSize=11;" vertex="1" parent="PleD8S-8ki-CoMPB9bo7-52">
          <mxGeometry width="36" height="45" as="geometry">
            <mxRectangle width="36" height="45" as="alternateBounds" />
          </mxGeometry>
        </mxCell>
        <mxCell id="PleD8S-8ki-CoMPB9bo7-54" value="username" style="shape=partialRectangle;connectable=0;fillColor=none;top=0;left=0;bottom=0;right=0;align=left;spacingLeft=2;overflow=hidden;fontSize=11;" vertex="1" parent="PleD8S-8ki-CoMPB9bo7-52">
          <mxGeometry x="36" width="164" height="45" as="geometry">
            <mxRectangle width="164" height="45" as="alternateBounds" />
          </mxGeometry>
        </mxCell>
        <mxCell id="PleD8S-8ki-CoMPB9bo7-55" value="" style="shape=partialRectangle;connectable=0;fillColor=none;top=0;left=0;bottom=0;right=0;align=left;spacingLeft=2;overflow=hidden;fontSize=11;" vertex="1" parent="PleD8S-8ki-CoMPB9bo7-52">
          <mxGeometry x="200" width="22" height="45" as="geometry">
            <mxRectangle width="22" height="45" as="alternateBounds" />
          </mxGeometry>
        </mxCell>
        <mxCell id="PleD8S-8ki-CoMPB9bo7-56" style="shape=tableRow;horizontal=0;startSize=0;swimlaneHead=0;swimlaneBody=0;fillColor=none;collapsible=0;dropTarget=0;points=[[0,0.5],[1,0.5]];portConstraint=eastwest;top=0;left=0;right=0;bottom=0;" vertex="1" parent="PleD8S-8ki-CoMPB9bo7-47">
          <mxGeometry y="115" width="222" height="45" as="geometry" />
        </mxCell>
        <mxCell id="PleD8S-8ki-CoMPB9bo7-57" value="string" style="shape=partialRectangle;connectable=0;fillColor=none;top=0;left=0;bottom=0;right=0;align=left;spacingLeft=2;overflow=hidden;fontSize=11;" vertex="1" parent="PleD8S-8ki-CoMPB9bo7-56">
          <mxGeometry width="36" height="45" as="geometry">
            <mxRectangle width="36" height="45" as="alternateBounds" />
          </mxGeometry>
        </mxCell>
        <mxCell id="PleD8S-8ki-CoMPB9bo7-58" value="name" style="shape=partialRectangle;connectable=0;fillColor=none;top=0;left=0;bottom=0;right=0;align=left;spacingLeft=2;overflow=hidden;fontSize=11;" vertex="1" parent="PleD8S-8ki-CoMPB9bo7-56">
          <mxGeometry x="36" width="164" height="45" as="geometry">
            <mxRectangle width="164" height="45" as="alternateBounds" />
          </mxGeometry>
        </mxCell>
        <mxCell id="PleD8S-8ki-CoMPB9bo7-59" value="" style="shape=partialRectangle;connectable=0;fillColor=none;top=0;left=0;bottom=0;right=0;align=left;spacingLeft=2;overflow=hidden;fontSize=11;" vertex="1" parent="PleD8S-8ki-CoMPB9bo7-56">
          <mxGeometry x="200" width="22" height="45" as="geometry">
            <mxRectangle width="22" height="45" as="alternateBounds" />
          </mxGeometry>
        </mxCell>
        <mxCell id="PleD8S-8ki-CoMPB9bo7-60" style="shape=tableRow;horizontal=0;startSize=0;swimlaneHead=0;swimlaneBody=0;fillColor=none;collapsible=0;dropTarget=0;points=[[0,0.5],[1,0.5]];portConstraint=eastwest;top=0;left=0;right=0;bottom=0;" vertex="1" parent="PleD8S-8ki-CoMPB9bo7-47">
          <mxGeometry y="160" width="222" height="45" as="geometry" />
        </mxCell>
        <mxCell id="PleD8S-8ki-CoMPB9bo7-61" value="date" style="shape=partialRectangle;connectable=0;fillColor=none;top=0;left=0;bottom=0;right=0;align=left;spacingLeft=2;overflow=hidden;fontSize=11;" vertex="1" parent="PleD8S-8ki-CoMPB9bo7-60">
          <mxGeometry width="36" height="45" as="geometry">
            <mxRectangle width="36" height="45" as="alternateBounds" />
          </mxGeometry>
        </mxCell>
        <mxCell id="PleD8S-8ki-CoMPB9bo7-62" value="birthdate" style="shape=partialRectangle;connectable=0;fillColor=none;top=0;left=0;bottom=0;right=0;align=left;spacingLeft=2;overflow=hidden;fontSize=11;" vertex="1" parent="PleD8S-8ki-CoMPB9bo7-60">
          <mxGeometry x="36" width="164" height="45" as="geometry">
            <mxRectangle width="164" height="45" as="alternateBounds" />
          </mxGeometry>
        </mxCell>
        <mxCell id="PleD8S-8ki-CoMPB9bo7-63" value="" style="shape=partialRectangle;connectable=0;fillColor=none;top=0;left=0;bottom=0;right=0;align=left;spacingLeft=2;overflow=hidden;fontSize=11;" vertex="1" parent="PleD8S-8ki-CoMPB9bo7-60">
          <mxGeometry x="200" width="22" height="45" as="geometry">
            <mxRectangle width="22" height="45" as="alternateBounds" />
          </mxGeometry>
        </mxCell>
        <mxCell id="PleD8S-8ki-CoMPB9bo7-64" style="shape=tableRow;horizontal=0;startSize=0;swimlaneHead=0;swimlaneBody=0;fillColor=none;collapsible=0;dropTarget=0;points=[[0,0.5],[1,0.5]];portConstraint=eastwest;top=0;left=0;right=0;bottom=0;" vertex="1" parent="PleD8S-8ki-CoMPB9bo7-47">
          <mxGeometry y="205" width="222" height="45" as="geometry" />
        </mxCell>
        <mxCell id="PleD8S-8ki-CoMPB9bo7-65" value="string" style="shape=partialRectangle;connectable=0;fillColor=none;top=0;left=0;bottom=0;right=0;align=left;spacingLeft=2;overflow=hidden;fontSize=11;" vertex="1" parent="PleD8S-8ki-CoMPB9bo7-64">
          <mxGeometry width="36" height="45" as="geometry">
            <mxRectangle width="36" height="45" as="alternateBounds" />
          </mxGeometry>
        </mxCell>
        <mxCell id="PleD8S-8ki-CoMPB9bo7-66" value="email" style="shape=partialRectangle;connectable=0;fillColor=none;top=0;left=0;bottom=0;right=0;align=left;spacingLeft=2;overflow=hidden;fontSize=11;" vertex="1" parent="PleD8S-8ki-CoMPB9bo7-64">
          <mxGeometry x="36" width="164" height="45" as="geometry">
            <mxRectangle width="164" height="45" as="alternateBounds" />
          </mxGeometry>
        </mxCell>
        <mxCell id="PleD8S-8ki-CoMPB9bo7-67" value="" style="shape=partialRectangle;connectable=0;fillColor=none;top=0;left=0;bottom=0;right=0;align=left;spacingLeft=2;overflow=hidden;fontSize=11;" vertex="1" parent="PleD8S-8ki-CoMPB9bo7-64">
          <mxGeometry x="200" width="22" height="45" as="geometry">
            <mxRectangle width="22" height="45" as="alternateBounds" />
          </mxGeometry>
        </mxCell>
        <mxCell id="PleD8S-8ki-CoMPB9bo7-68" style="shape=tableRow;horizontal=0;startSize=0;swimlaneHead=0;swimlaneBody=0;fillColor=none;collapsible=0;dropTarget=0;points=[[0,0.5],[1,0.5]];portConstraint=eastwest;top=0;left=0;right=0;bottom=0;" vertex="1" parent="PleD8S-8ki-CoMPB9bo7-47">
          <mxGeometry y="250" width="222" height="45" as="geometry" />
        </mxCell>
        <mxCell id="PleD8S-8ki-CoMPB9bo7-69" value="string" style="shape=partialRectangle;connectable=0;fillColor=none;top=0;left=0;bottom=0;right=0;align=left;spacingLeft=2;overflow=hidden;fontSize=11;" vertex="1" parent="PleD8S-8ki-CoMPB9bo7-68">
          <mxGeometry width="36" height="45" as="geometry">
            <mxRectangle width="36" height="45" as="alternateBounds" />
          </mxGeometry>
        </mxCell>
        <mxCell id="PleD8S-8ki-CoMPB9bo7-70" value="address" style="shape=partialRectangle;connectable=0;fillColor=none;top=0;left=0;bottom=0;right=0;align=left;spacingLeft=2;overflow=hidden;fontSize=11;" vertex="1" parent="PleD8S-8ki-CoMPB9bo7-68">
          <mxGeometry x="36" width="164" height="45" as="geometry">
            <mxRectangle width="164" height="45" as="alternateBounds" />
          </mxGeometry>
        </mxCell>
        <mxCell id="PleD8S-8ki-CoMPB9bo7-71" value="" style="shape=partialRectangle;connectable=0;fillColor=none;top=0;left=0;bottom=0;right=0;align=left;spacingLeft=2;overflow=hidden;fontSize=11;" vertex="1" parent="PleD8S-8ki-CoMPB9bo7-68">
          <mxGeometry x="200" width="22" height="45" as="geometry">
            <mxRectangle width="22" height="45" as="alternateBounds" />
          </mxGeometry>
        </mxCell>
        <mxCell id="PleD8S-8ki-CoMPB9bo7-72" style="shape=tableRow;horizontal=0;startSize=0;swimlaneHead=0;swimlaneBody=0;fillColor=none;collapsible=0;dropTarget=0;points=[[0,0.5],[1,0.5]];portConstraint=eastwest;top=0;left=0;right=0;bottom=0;" vertex="1" parent="PleD8S-8ki-CoMPB9bo7-47">
          <mxGeometry y="295" width="222" height="45" as="geometry" />
        </mxCell>
        <mxCell id="PleD8S-8ki-CoMPB9bo7-73" value="int" style="shape=partialRectangle;connectable=0;fillColor=none;top=0;left=0;bottom=0;right=0;align=left;spacingLeft=2;overflow=hidden;fontSize=11;" vertex="1" parent="PleD8S-8ki-CoMPB9bo7-72">
          <mxGeometry width="36" height="45" as="geometry">
            <mxRectangle width="36" height="45" as="alternateBounds" />
          </mxGeometry>
        </mxCell>
        <mxCell id="PleD8S-8ki-CoMPB9bo7-74" value="tier_id" style="shape=partialRectangle;connectable=0;fillColor=none;top=0;left=0;bottom=0;right=0;align=left;spacingLeft=2;overflow=hidden;fontSize=11;" vertex="1" parent="PleD8S-8ki-CoMPB9bo7-72">
          <mxGeometry x="36" width="164" height="45" as="geometry">
            <mxRectangle width="164" height="45" as="alternateBounds" />
          </mxGeometry>
        </mxCell>
        <mxCell id="PleD8S-8ki-CoMPB9bo7-75" value="FK" style="shape=partialRectangle;connectable=0;fillColor=none;top=0;left=0;bottom=0;right=0;align=left;spacingLeft=2;overflow=hidden;fontSize=11;" vertex="1" parent="PleD8S-8ki-CoMPB9bo7-72">
          <mxGeometry x="200" width="22" height="45" as="geometry">
            <mxRectangle width="22" height="45" as="alternateBounds" />
          </mxGeometry>
        </mxCell>
        <mxCell id="PleD8S-8ki-CoMPB9bo7-76" value="DimTier" style="shape=table;startSize=25;container=1;collapsible=0;childLayout=tableLayout;fixedRows=1;rowLines=1;fontStyle=1;align=center;resizeLast=1;" vertex="1" parent="1">
          <mxGeometry x="38" y="1312" width="198" height="172" as="geometry" />
        </mxCell>
        <mxCell id="PleD8S-8ki-CoMPB9bo7-77" style="shape=tableRow;horizontal=0;startSize=0;swimlaneHead=0;swimlaneBody=0;fillColor=none;collapsible=0;dropTarget=0;points=[[0,0.5],[1,0.5]];portConstraint=eastwest;top=0;left=0;right=0;bottom=0;" vertex="1" parent="PleD8S-8ki-CoMPB9bo7-76">
          <mxGeometry y="25" width="198" height="49" as="geometry" />
        </mxCell>
        <mxCell id="PleD8S-8ki-CoMPB9bo7-78" value="int" style="shape=partialRectangle;connectable=0;fillColor=none;top=0;left=0;bottom=0;right=0;align=left;spacingLeft=2;overflow=hidden;fontSize=11;" vertex="1" parent="PleD8S-8ki-CoMPB9bo7-77">
          <mxGeometry width="42" height="49" as="geometry">
            <mxRectangle width="42" height="49" as="alternateBounds" />
          </mxGeometry>
        </mxCell>
        <mxCell id="PleD8S-8ki-CoMPB9bo7-79" value="tier_id" style="shape=partialRectangle;connectable=0;fillColor=none;top=0;left=0;bottom=0;right=0;align=left;spacingLeft=2;overflow=hidden;fontSize=11;" vertex="1" parent="PleD8S-8ki-CoMPB9bo7-77">
          <mxGeometry x="42" width="134" height="49" as="geometry">
            <mxRectangle width="134" height="49" as="alternateBounds" />
          </mxGeometry>
        </mxCell>
        <mxCell id="PleD8S-8ki-CoMPB9bo7-80" value="PK" style="shape=partialRectangle;connectable=0;fillColor=none;top=0;left=0;bottom=0;right=0;align=left;spacingLeft=2;overflow=hidden;fontSize=11;" vertex="1" parent="PleD8S-8ki-CoMPB9bo7-77">
          <mxGeometry x="176" width="22" height="49" as="geometry">
            <mxRectangle width="22" height="49" as="alternateBounds" />
          </mxGeometry>
        </mxCell>
        <mxCell id="PleD8S-8ki-CoMPB9bo7-81" style="shape=tableRow;horizontal=0;startSize=0;swimlaneHead=0;swimlaneBody=0;fillColor=none;collapsible=0;dropTarget=0;points=[[0,0.5],[1,0.5]];portConstraint=eastwest;top=0;left=0;right=0;bottom=0;" vertex="1" parent="PleD8S-8ki-CoMPB9bo7-76">
          <mxGeometry y="74" width="198" height="49" as="geometry" />
        </mxCell>
        <mxCell id="PleD8S-8ki-CoMPB9bo7-82" value="string" style="shape=partialRectangle;connectable=0;fillColor=none;top=0;left=0;bottom=0;right=0;align=left;spacingLeft=2;overflow=hidden;fontSize=11;" vertex="1" parent="PleD8S-8ki-CoMPB9bo7-81">
          <mxGeometry width="42" height="49" as="geometry">
            <mxRectangle width="42" height="49" as="alternateBounds" />
          </mxGeometry>
        </mxCell>
        <mxCell id="PleD8S-8ki-CoMPB9bo7-83" value="tier" style="shape=partialRectangle;connectable=0;fillColor=none;top=0;left=0;bottom=0;right=0;align=left;spacingLeft=2;overflow=hidden;fontSize=11;" vertex="1" parent="PleD8S-8ki-CoMPB9bo7-81">
          <mxGeometry x="42" width="134" height="49" as="geometry">
            <mxRectangle width="134" height="49" as="alternateBounds" />
          </mxGeometry>
        </mxCell>
        <mxCell id="PleD8S-8ki-CoMPB9bo7-84" value="" style="shape=partialRectangle;connectable=0;fillColor=none;top=0;left=0;bottom=0;right=0;align=left;spacingLeft=2;overflow=hidden;fontSize=11;" vertex="1" parent="PleD8S-8ki-CoMPB9bo7-81">
          <mxGeometry x="176" width="22" height="49" as="geometry">
            <mxRectangle width="22" height="49" as="alternateBounds" />
          </mxGeometry>
        </mxCell>
        <mxCell id="PleD8S-8ki-CoMPB9bo7-85" style="shape=tableRow;horizontal=0;startSize=0;swimlaneHead=0;swimlaneBody=0;fillColor=none;collapsible=0;dropTarget=0;points=[[0,0.5],[1,0.5]];portConstraint=eastwest;top=0;left=0;right=0;bottom=0;" vertex="1" parent="PleD8S-8ki-CoMPB9bo7-76">
          <mxGeometry y="123" width="198" height="49" as="geometry" />
        </mxCell>
        <mxCell id="PleD8S-8ki-CoMPB9bo7-86" value="boolean" style="shape=partialRectangle;connectable=0;fillColor=none;top=0;left=0;bottom=0;right=0;align=left;spacingLeft=2;overflow=hidden;fontSize=11;" vertex="1" parent="PleD8S-8ki-CoMPB9bo7-85">
          <mxGeometry width="42" height="49" as="geometry">
            <mxRectangle width="42" height="49" as="alternateBounds" />
          </mxGeometry>
        </mxCell>
        <mxCell id="PleD8S-8ki-CoMPB9bo7-87" value="active" style="shape=partialRectangle;connectable=0;fillColor=none;top=0;left=0;bottom=0;right=0;align=left;spacingLeft=2;overflow=hidden;fontSize=11;" vertex="1" parent="PleD8S-8ki-CoMPB9bo7-85">
          <mxGeometry x="42" width="134" height="49" as="geometry">
            <mxRectangle width="134" height="49" as="alternateBounds" />
          </mxGeometry>
        </mxCell>
        <mxCell id="PleD8S-8ki-CoMPB9bo7-88" value="" style="shape=partialRectangle;connectable=0;fillColor=none;top=0;left=0;bottom=0;right=0;align=left;spacingLeft=2;overflow=hidden;fontSize=11;" vertex="1" parent="PleD8S-8ki-CoMPB9bo7-85">
          <mxGeometry x="176" width="22" height="49" as="geometry">
            <mxRectangle width="22" height="49" as="alternateBounds" />
          </mxGeometry>
        </mxCell>
        <mxCell id="PleD8S-8ki-CoMPB9bo7-89" value="DimBenefit" style="shape=table;startSize=25;container=1;collapsible=0;childLayout=tableLayout;fixedRows=1;rowLines=1;fontStyle=1;align=center;resizeLast=1;" vertex="1" parent="1">
          <mxGeometry x="20" y="1818" width="233" height="129" as="geometry" />
        </mxCell>
        <mxCell id="PleD8S-8ki-CoMPB9bo7-90" style="shape=tableRow;horizontal=0;startSize=0;swimlaneHead=0;swimlaneBody=0;fillColor=none;collapsible=0;dropTarget=0;points=[[0,0.5],[1,0.5]];portConstraint=eastwest;top=0;left=0;right=0;bottom=0;" vertex="1" parent="PleD8S-8ki-CoMPB9bo7-89">
          <mxGeometry y="25" width="233" height="52" as="geometry" />
        </mxCell>
        <mxCell id="PleD8S-8ki-CoMPB9bo7-91" value="int" style="shape=partialRectangle;connectable=0;fillColor=none;top=0;left=0;bottom=0;right=0;align=left;spacingLeft=2;overflow=hidden;fontSize=11;" vertex="1" parent="PleD8S-8ki-CoMPB9bo7-90">
          <mxGeometry width="36" height="52" as="geometry">
            <mxRectangle width="36" height="52" as="alternateBounds" />
          </mxGeometry>
        </mxCell>
        <mxCell id="PleD8S-8ki-CoMPB9bo7-92" value="benefit_id" style="shape=partialRectangle;connectable=0;fillColor=none;top=0;left=0;bottom=0;right=0;align=left;spacingLeft=2;overflow=hidden;fontSize=11;" vertex="1" parent="PleD8S-8ki-CoMPB9bo7-90">
          <mxGeometry x="36" width="175" height="52" as="geometry">
            <mxRectangle width="175" height="52" as="alternateBounds" />
          </mxGeometry>
        </mxCell>
        <mxCell id="PleD8S-8ki-CoMPB9bo7-93" value="PK" style="shape=partialRectangle;connectable=0;fillColor=none;top=0;left=0;bottom=0;right=0;align=left;spacingLeft=2;overflow=hidden;fontSize=11;" vertex="1" parent="PleD8S-8ki-CoMPB9bo7-90">
          <mxGeometry x="211" width="22" height="52" as="geometry">
            <mxRectangle width="22" height="52" as="alternateBounds" />
          </mxGeometry>
        </mxCell>
        <mxCell id="PleD8S-8ki-CoMPB9bo7-94" style="shape=tableRow;horizontal=0;startSize=0;swimlaneHead=0;swimlaneBody=0;fillColor=none;collapsible=0;dropTarget=0;points=[[0,0.5],[1,0.5]];portConstraint=eastwest;top=0;left=0;right=0;bottom=0;" vertex="1" parent="PleD8S-8ki-CoMPB9bo7-89">
          <mxGeometry y="77" width="233" height="52" as="geometry" />
        </mxCell>
        <mxCell id="PleD8S-8ki-CoMPB9bo7-95" value="string" style="shape=partialRectangle;connectable=0;fillColor=none;top=0;left=0;bottom=0;right=0;align=left;spacingLeft=2;overflow=hidden;fontSize=11;" vertex="1" parent="PleD8S-8ki-CoMPB9bo7-94">
          <mxGeometry width="36" height="52" as="geometry">
            <mxRectangle width="36" height="52" as="alternateBounds" />
          </mxGeometry>
        </mxCell>
        <mxCell id="PleD8S-8ki-CoMPB9bo7-96" value="benefit_name" style="shape=partialRectangle;connectable=0;fillColor=none;top=0;left=0;bottom=0;right=0;align=left;spacingLeft=2;overflow=hidden;fontSize=11;" vertex="1" parent="PleD8S-8ki-CoMPB9bo7-94">
          <mxGeometry x="36" width="175" height="52" as="geometry">
            <mxRectangle width="175" height="52" as="alternateBounds" />
          </mxGeometry>
        </mxCell>
        <mxCell id="PleD8S-8ki-CoMPB9bo7-97" value="" style="shape=partialRectangle;connectable=0;fillColor=none;top=0;left=0;bottom=0;right=0;align=left;spacingLeft=2;overflow=hidden;fontSize=11;" vertex="1" parent="PleD8S-8ki-CoMPB9bo7-94">
          <mxGeometry x="211" width="22" height="52" as="geometry">
            <mxRectangle width="22" height="52" as="alternateBounds" />
          </mxGeometry>
        </mxCell>
        <mxCell id="PleD8S-8ki-CoMPB9bo7-98" value="TierBenefitBridge" style="shape=table;startSize=25;container=1;collapsible=0;childLayout=tableLayout;fixedRows=1;rowLines=1;fontStyle=1;align=center;resizeLast=1;" vertex="1" parent="1">
          <mxGeometry x="43" y="1586" width="186" height="129" as="geometry" />
        </mxCell>
        <mxCell id="PleD8S-8ki-CoMPB9bo7-99" style="shape=tableRow;horizontal=0;startSize=0;swimlaneHead=0;swimlaneBody=0;fillColor=none;collapsible=0;dropTarget=0;points=[[0,0.5],[1,0.5]];portConstraint=eastwest;top=0;left=0;right=0;bottom=0;" vertex="1" parent="PleD8S-8ki-CoMPB9bo7-98">
          <mxGeometry y="25" width="186" height="52" as="geometry" />
        </mxCell>
        <mxCell id="PleD8S-8ki-CoMPB9bo7-100" value="int" style="shape=partialRectangle;connectable=0;fillColor=none;top=0;left=0;bottom=0;right=0;align=left;spacingLeft=2;overflow=hidden;fontSize=11;" vertex="1" parent="PleD8S-8ki-CoMPB9bo7-99">
          <mxGeometry width="18" height="52" as="geometry">
            <mxRectangle width="18" height="52" as="alternateBounds" />
          </mxGeometry>
        </mxCell>
        <mxCell id="PleD8S-8ki-CoMPB9bo7-101" value="tier_id" style="shape=partialRectangle;connectable=0;fillColor=none;top=0;left=0;bottom=0;right=0;align=left;spacingLeft=2;overflow=hidden;fontSize=11;" vertex="1" parent="PleD8S-8ki-CoMPB9bo7-99">
          <mxGeometry x="18" width="146" height="52" as="geometry">
            <mxRectangle width="146" height="52" as="alternateBounds" />
          </mxGeometry>
        </mxCell>
        <mxCell id="PleD8S-8ki-CoMPB9bo7-102" value="FK" style="shape=partialRectangle;connectable=0;fillColor=none;top=0;left=0;bottom=0;right=0;align=left;spacingLeft=2;overflow=hidden;fontSize=11;" vertex="1" parent="PleD8S-8ki-CoMPB9bo7-99">
          <mxGeometry x="164" width="22" height="52" as="geometry">
            <mxRectangle width="22" height="52" as="alternateBounds" />
          </mxGeometry>
        </mxCell>
        <mxCell id="PleD8S-8ki-CoMPB9bo7-103" style="shape=tableRow;horizontal=0;startSize=0;swimlaneHead=0;swimlaneBody=0;fillColor=none;collapsible=0;dropTarget=0;points=[[0,0.5],[1,0.5]];portConstraint=eastwest;top=0;left=0;right=0;bottom=0;" vertex="1" parent="PleD8S-8ki-CoMPB9bo7-98">
          <mxGeometry y="77" width="186" height="52" as="geometry" />
        </mxCell>
        <mxCell id="PleD8S-8ki-CoMPB9bo7-104" value="int" style="shape=partialRectangle;connectable=0;fillColor=none;top=0;left=0;bottom=0;right=0;align=left;spacingLeft=2;overflow=hidden;fontSize=11;" vertex="1" parent="PleD8S-8ki-CoMPB9bo7-103">
          <mxGeometry width="18" height="52" as="geometry">
            <mxRectangle width="18" height="52" as="alternateBounds" />
          </mxGeometry>
        </mxCell>
        <mxCell id="PleD8S-8ki-CoMPB9bo7-105" value="benefit_id" style="shape=partialRectangle;connectable=0;fillColor=none;top=0;left=0;bottom=0;right=0;align=left;spacingLeft=2;overflow=hidden;fontSize=11;" vertex="1" parent="PleD8S-8ki-CoMPB9bo7-103">
          <mxGeometry x="18" width="146" height="52" as="geometry">
            <mxRectangle width="146" height="52" as="alternateBounds" />
          </mxGeometry>
        </mxCell>
        <mxCell id="PleD8S-8ki-CoMPB9bo7-106" value="FK" style="shape=partialRectangle;connectable=0;fillColor=none;top=0;left=0;bottom=0;right=0;align=left;spacingLeft=2;overflow=hidden;fontSize=11;" vertex="1" parent="PleD8S-8ki-CoMPB9bo7-103">
          <mxGeometry x="164" width="22" height="52" as="geometry">
            <mxRectangle width="22" height="52" as="alternateBounds" />
          </mxGeometry>
        </mxCell>
        <mxCell id="PleD8S-8ki-CoMPB9bo7-107" value="DimProduct" style="shape=table;startSize=25;container=1;collapsible=0;childLayout=tableLayout;fixedRows=1;rowLines=1;fontStyle=1;align=center;resizeLast=1;" vertex="1" parent="1">
          <mxGeometry x="375" y="1334" width="237" height="129" as="geometry" />
        </mxCell>
        <mxCell id="PleD8S-8ki-CoMPB9bo7-108" style="shape=tableRow;horizontal=0;startSize=0;swimlaneHead=0;swimlaneBody=0;fillColor=none;collapsible=0;dropTarget=0;points=[[0,0.5],[1,0.5]];portConstraint=eastwest;top=0;left=0;right=0;bottom=0;" vertex="1" parent="PleD8S-8ki-CoMPB9bo7-107">
          <mxGeometry y="25" width="237" height="52" as="geometry" />
        </mxCell>
        <mxCell id="PleD8S-8ki-CoMPB9bo7-109" value="int" style="shape=partialRectangle;connectable=0;fillColor=none;top=0;left=0;bottom=0;right=0;align=left;spacingLeft=2;overflow=hidden;fontSize=11;" vertex="1" parent="PleD8S-8ki-CoMPB9bo7-108">
          <mxGeometry width="36" height="52" as="geometry">
            <mxRectangle width="36" height="52" as="alternateBounds" />
          </mxGeometry>
        </mxCell>
        <mxCell id="PleD8S-8ki-CoMPB9bo7-110" value="product_id" style="shape=partialRectangle;connectable=0;fillColor=none;top=0;left=0;bottom=0;right=0;align=left;spacingLeft=2;overflow=hidden;fontSize=11;" vertex="1" parent="PleD8S-8ki-CoMPB9bo7-108">
          <mxGeometry x="36" width="179" height="52" as="geometry">
            <mxRectangle width="179" height="52" as="alternateBounds" />
          </mxGeometry>
        </mxCell>
        <mxCell id="PleD8S-8ki-CoMPB9bo7-111" value="PK" style="shape=partialRectangle;connectable=0;fillColor=none;top=0;left=0;bottom=0;right=0;align=left;spacingLeft=2;overflow=hidden;fontSize=11;" vertex="1" parent="PleD8S-8ki-CoMPB9bo7-108">
          <mxGeometry x="215" width="22" height="52" as="geometry">
            <mxRectangle width="22" height="52" as="alternateBounds" />
          </mxGeometry>
        </mxCell>
        <mxCell id="PleD8S-8ki-CoMPB9bo7-112" style="shape=tableRow;horizontal=0;startSize=0;swimlaneHead=0;swimlaneBody=0;fillColor=none;collapsible=0;dropTarget=0;points=[[0,0.5],[1,0.5]];portConstraint=eastwest;top=0;left=0;right=0;bottom=0;" vertex="1" parent="PleD8S-8ki-CoMPB9bo7-107">
          <mxGeometry y="77" width="237" height="52" as="geometry" />
        </mxCell>
        <mxCell id="PleD8S-8ki-CoMPB9bo7-113" value="string" style="shape=partialRectangle;connectable=0;fillColor=none;top=0;left=0;bottom=0;right=0;align=left;spacingLeft=2;overflow=hidden;fontSize=11;" vertex="1" parent="PleD8S-8ki-CoMPB9bo7-112">
          <mxGeometry width="36" height="52" as="geometry">
            <mxRectangle width="36" height="52" as="alternateBounds" />
          </mxGeometry>
        </mxCell>
        <mxCell id="PleD8S-8ki-CoMPB9bo7-114" value="product_name" style="shape=partialRectangle;connectable=0;fillColor=none;top=0;left=0;bottom=0;right=0;align=left;spacingLeft=2;overflow=hidden;fontSize=11;" vertex="1" parent="PleD8S-8ki-CoMPB9bo7-112">
          <mxGeometry x="36" width="179" height="52" as="geometry">
            <mxRectangle width="179" height="52" as="alternateBounds" />
          </mxGeometry>
        </mxCell>
        <mxCell id="PleD8S-8ki-CoMPB9bo7-115" value="" style="shape=partialRectangle;connectable=0;fillColor=none;top=0;left=0;bottom=0;right=0;align=left;spacingLeft=2;overflow=hidden;fontSize=11;" vertex="1" parent="PleD8S-8ki-CoMPB9bo7-112">
          <mxGeometry x="215" width="22" height="52" as="geometry">
            <mxRectangle width="22" height="52" as="alternateBounds" />
          </mxGeometry>
        </mxCell>
        <mxCell id="PleD8S-8ki-CoMPB9bo7-116" value="AccountProductBridge" style="shape=table;startSize=25;container=1;collapsible=0;childLayout=tableLayout;fixedRows=1;rowLines=1;fontStyle=1;align=center;resizeLast=1;" vertex="1" parent="1">
          <mxGeometry x="390" y="974" width="208" height="129" as="geometry" />
        </mxCell>
        <mxCell id="PleD8S-8ki-CoMPB9bo7-117" style="shape=tableRow;horizontal=0;startSize=0;swimlaneHead=0;swimlaneBody=0;fillColor=none;collapsible=0;dropTarget=0;points=[[0,0.5],[1,0.5]];portConstraint=eastwest;top=0;left=0;right=0;bottom=0;" vertex="1" parent="PleD8S-8ki-CoMPB9bo7-116">
          <mxGeometry y="25" width="208" height="52" as="geometry" />
        </mxCell>
        <mxCell id="PleD8S-8ki-CoMPB9bo7-118" value="int" style="shape=partialRectangle;connectable=0;fillColor=none;top=0;left=0;bottom=0;right=0;align=left;spacingLeft=2;overflow=hidden;fontSize=11;" vertex="1" parent="PleD8S-8ki-CoMPB9bo7-117">
          <mxGeometry width="18" height="52" as="geometry">
            <mxRectangle width="18" height="52" as="alternateBounds" />
          </mxGeometry>
        </mxCell>
        <mxCell id="PleD8S-8ki-CoMPB9bo7-119" value="account_id" style="shape=partialRectangle;connectable=0;fillColor=none;top=0;left=0;bottom=0;right=0;align=left;spacingLeft=2;overflow=hidden;fontSize=11;" vertex="1" parent="PleD8S-8ki-CoMPB9bo7-117">
          <mxGeometry x="18" width="168" height="52" as="geometry">
            <mxRectangle width="168" height="52" as="alternateBounds" />
          </mxGeometry>
        </mxCell>
        <mxCell id="PleD8S-8ki-CoMPB9bo7-120" value="FK" style="shape=partialRectangle;connectable=0;fillColor=none;top=0;left=0;bottom=0;right=0;align=left;spacingLeft=2;overflow=hidden;fontSize=11;" vertex="1" parent="PleD8S-8ki-CoMPB9bo7-117">
          <mxGeometry x="186" width="22" height="52" as="geometry">
            <mxRectangle width="22" height="52" as="alternateBounds" />
          </mxGeometry>
        </mxCell>
        <mxCell id="PleD8S-8ki-CoMPB9bo7-121" style="shape=tableRow;horizontal=0;startSize=0;swimlaneHead=0;swimlaneBody=0;fillColor=none;collapsible=0;dropTarget=0;points=[[0,0.5],[1,0.5]];portConstraint=eastwest;top=0;left=0;right=0;bottom=0;" vertex="1" parent="PleD8S-8ki-CoMPB9bo7-116">
          <mxGeometry y="77" width="208" height="52" as="geometry" />
        </mxCell>
        <mxCell id="PleD8S-8ki-CoMPB9bo7-122" value="int" style="shape=partialRectangle;connectable=0;fillColor=none;top=0;left=0;bottom=0;right=0;align=left;spacingLeft=2;overflow=hidden;fontSize=11;" vertex="1" parent="PleD8S-8ki-CoMPB9bo7-121">
          <mxGeometry width="18" height="52" as="geometry">
            <mxRectangle width="18" height="52" as="alternateBounds" />
          </mxGeometry>
        </mxCell>
        <mxCell id="PleD8S-8ki-CoMPB9bo7-123" value="product_id" style="shape=partialRectangle;connectable=0;fillColor=none;top=0;left=0;bottom=0;right=0;align=left;spacingLeft=2;overflow=hidden;fontSize=11;" vertex="1" parent="PleD8S-8ki-CoMPB9bo7-121">
          <mxGeometry x="18" width="168" height="52" as="geometry">
            <mxRectangle width="168" height="52" as="alternateBounds" />
          </mxGeometry>
        </mxCell>
        <mxCell id="PleD8S-8ki-CoMPB9bo7-124" value="FK" style="shape=partialRectangle;connectable=0;fillColor=none;top=0;left=0;bottom=0;right=0;align=left;spacingLeft=2;overflow=hidden;fontSize=11;" vertex="1" parent="PleD8S-8ki-CoMPB9bo7-121">
          <mxGeometry x="186" width="22" height="52" as="geometry">
            <mxRectangle width="22" height="52" as="alternateBounds" />
          </mxGeometry>
        </mxCell>
        <mxCell id="PleD8S-8ki-CoMPB9bo7-125" value="DimTransactionType" style="shape=table;startSize=25;container=1;collapsible=0;childLayout=tableLayout;fixedRows=1;rowLines=1;fontStyle=1;align=center;resizeLast=1;" vertex="1" parent="1">
          <mxGeometry x="579" y="572" width="279" height="129" as="geometry" />
        </mxCell>
        <mxCell id="PleD8S-8ki-CoMPB9bo7-126" style="shape=tableRow;horizontal=0;startSize=0;swimlaneHead=0;swimlaneBody=0;fillColor=none;collapsible=0;dropTarget=0;points=[[0,0.5],[1,0.5]];portConstraint=eastwest;top=0;left=0;right=0;bottom=0;" vertex="1" parent="PleD8S-8ki-CoMPB9bo7-125">
          <mxGeometry y="25" width="279" height="52" as="geometry" />
        </mxCell>
        <mxCell id="PleD8S-8ki-CoMPB9bo7-127" value="int" style="shape=partialRectangle;connectable=0;fillColor=none;top=0;left=0;bottom=0;right=0;align=left;spacingLeft=2;overflow=hidden;fontSize=11;" vertex="1" parent="PleD8S-8ki-CoMPB9bo7-126">
          <mxGeometry width="36" height="52" as="geometry">
            <mxRectangle width="36" height="52" as="alternateBounds" />
          </mxGeometry>
        </mxCell>
        <mxCell id="PleD8S-8ki-CoMPB9bo7-128" value="transaction_code_id" style="shape=partialRectangle;connectable=0;fillColor=none;top=0;left=0;bottom=0;right=0;align=left;spacingLeft=2;overflow=hidden;fontSize=11;" vertex="1" parent="PleD8S-8ki-CoMPB9bo7-126">
          <mxGeometry x="36" width="221" height="52" as="geometry">
            <mxRectangle width="221" height="52" as="alternateBounds" />
          </mxGeometry>
        </mxCell>
        <mxCell id="PleD8S-8ki-CoMPB9bo7-129" value="PK" style="shape=partialRectangle;connectable=0;fillColor=none;top=0;left=0;bottom=0;right=0;align=left;spacingLeft=2;overflow=hidden;fontSize=11;" vertex="1" parent="PleD8S-8ki-CoMPB9bo7-126">
          <mxGeometry x="257" width="22" height="52" as="geometry">
            <mxRectangle width="22" height="52" as="alternateBounds" />
          </mxGeometry>
        </mxCell>
        <mxCell id="PleD8S-8ki-CoMPB9bo7-130" style="shape=tableRow;horizontal=0;startSize=0;swimlaneHead=0;swimlaneBody=0;fillColor=none;collapsible=0;dropTarget=0;points=[[0,0.5],[1,0.5]];portConstraint=eastwest;top=0;left=0;right=0;bottom=0;" vertex="1" parent="PleD8S-8ki-CoMPB9bo7-125">
          <mxGeometry y="77" width="279" height="52" as="geometry" />
        </mxCell>
        <mxCell id="PleD8S-8ki-CoMPB9bo7-131" value="string" style="shape=partialRectangle;connectable=0;fillColor=none;top=0;left=0;bottom=0;right=0;align=left;spacingLeft=2;overflow=hidden;fontSize=11;" vertex="1" parent="PleD8S-8ki-CoMPB9bo7-130">
          <mxGeometry width="36" height="52" as="geometry">
            <mxRectangle width="36" height="52" as="alternateBounds" />
          </mxGeometry>
        </mxCell>
        <mxCell id="PleD8S-8ki-CoMPB9bo7-132" value="transaction_code" style="shape=partialRectangle;connectable=0;fillColor=none;top=0;left=0;bottom=0;right=0;align=left;spacingLeft=2;overflow=hidden;fontSize=11;" vertex="1" parent="PleD8S-8ki-CoMPB9bo7-130">
          <mxGeometry x="36" width="221" height="52" as="geometry">
            <mxRectangle width="221" height="52" as="alternateBounds" />
          </mxGeometry>
        </mxCell>
        <mxCell id="PleD8S-8ki-CoMPB9bo7-133" value="" style="shape=partialRectangle;connectable=0;fillColor=none;top=0;left=0;bottom=0;right=0;align=left;spacingLeft=2;overflow=hidden;fontSize=11;" vertex="1" parent="PleD8S-8ki-CoMPB9bo7-130">
          <mxGeometry x="257" width="22" height="52" as="geometry">
            <mxRectangle width="22" height="52" as="alternateBounds" />
          </mxGeometry>
        </mxCell>
        <mxCell id="PleD8S-8ki-CoMPB9bo7-134" value="DimSymbol" style="shape=table;startSize=25;container=1;collapsible=0;childLayout=tableLayout;fixedRows=1;rowLines=1;fontStyle=1;align=center;resizeLast=1;" vertex="1" parent="1">
          <mxGeometry x="998" y="572" width="205" height="129" as="geometry" />
        </mxCell>
        <mxCell id="PleD8S-8ki-CoMPB9bo7-135" style="shape=tableRow;horizontal=0;startSize=0;swimlaneHead=0;swimlaneBody=0;fillColor=none;collapsible=0;dropTarget=0;points=[[0,0.5],[1,0.5]];portConstraint=eastwest;top=0;left=0;right=0;bottom=0;" vertex="1" parent="PleD8S-8ki-CoMPB9bo7-134">
          <mxGeometry y="25" width="205" height="52" as="geometry" />
        </mxCell>
        <mxCell id="PleD8S-8ki-CoMPB9bo7-136" value="int" style="shape=partialRectangle;connectable=0;fillColor=none;top=0;left=0;bottom=0;right=0;align=left;spacingLeft=2;overflow=hidden;fontSize=11;" vertex="1" parent="PleD8S-8ki-CoMPB9bo7-135">
          <mxGeometry width="36" height="52" as="geometry">
            <mxRectangle width="36" height="52" as="alternateBounds" />
          </mxGeometry>
        </mxCell>
        <mxCell id="PleD8S-8ki-CoMPB9bo7-137" value="symbol_id" style="shape=partialRectangle;connectable=0;fillColor=none;top=0;left=0;bottom=0;right=0;align=left;spacingLeft=2;overflow=hidden;fontSize=11;" vertex="1" parent="PleD8S-8ki-CoMPB9bo7-135">
          <mxGeometry x="36" width="147" height="52" as="geometry">
            <mxRectangle width="147" height="52" as="alternateBounds" />
          </mxGeometry>
        </mxCell>
        <mxCell id="PleD8S-8ki-CoMPB9bo7-138" value="PK" style="shape=partialRectangle;connectable=0;fillColor=none;top=0;left=0;bottom=0;right=0;align=left;spacingLeft=2;overflow=hidden;fontSize=11;" vertex="1" parent="PleD8S-8ki-CoMPB9bo7-135">
          <mxGeometry x="183" width="22" height="52" as="geometry">
            <mxRectangle width="22" height="52" as="alternateBounds" />
          </mxGeometry>
        </mxCell>
        <mxCell id="PleD8S-8ki-CoMPB9bo7-139" style="shape=tableRow;horizontal=0;startSize=0;swimlaneHead=0;swimlaneBody=0;fillColor=none;collapsible=0;dropTarget=0;points=[[0,0.5],[1,0.5]];portConstraint=eastwest;top=0;left=0;right=0;bottom=0;" vertex="1" parent="PleD8S-8ki-CoMPB9bo7-134">
          <mxGeometry y="77" width="205" height="52" as="geometry" />
        </mxCell>
        <mxCell id="PleD8S-8ki-CoMPB9bo7-140" value="string" style="shape=partialRectangle;connectable=0;fillColor=none;top=0;left=0;bottom=0;right=0;align=left;spacingLeft=2;overflow=hidden;fontSize=11;" vertex="1" parent="PleD8S-8ki-CoMPB9bo7-139">
          <mxGeometry width="36" height="52" as="geometry">
            <mxRectangle width="36" height="52" as="alternateBounds" />
          </mxGeometry>
        </mxCell>
        <mxCell id="PleD8S-8ki-CoMPB9bo7-141" value="symbol" style="shape=partialRectangle;connectable=0;fillColor=none;top=0;left=0;bottom=0;right=0;align=left;spacingLeft=2;overflow=hidden;fontSize=11;" vertex="1" parent="PleD8S-8ki-CoMPB9bo7-139">
          <mxGeometry x="36" width="147" height="52" as="geometry">
            <mxRectangle width="147" height="52" as="alternateBounds" />
          </mxGeometry>
        </mxCell>
        <mxCell id="PleD8S-8ki-CoMPB9bo7-142" value="" style="shape=partialRectangle;connectable=0;fillColor=none;top=0;left=0;bottom=0;right=0;align=left;spacingLeft=2;overflow=hidden;fontSize=11;" vertex="1" parent="PleD8S-8ki-CoMPB9bo7-139">
          <mxGeometry x="183" width="22" height="52" as="geometry">
            <mxRectangle width="22" height="52" as="alternateBounds" />
          </mxGeometry>
        </mxCell>
        <mxCell id="PleD8S-8ki-CoMPB9bo7-143" value="DimDate" style="shape=table;startSize=25;container=1;collapsible=0;childLayout=tableLayout;fixedRows=1;rowLines=1;fontStyle=1;align=center;resizeLast=1;" vertex="1" parent="1">
          <mxGeometry x="1343" y="508" width="180" height="257" as="geometry" />
        </mxCell>
        <mxCell id="PleD8S-8ki-CoMPB9bo7-144" style="shape=tableRow;horizontal=0;startSize=0;swimlaneHead=0;swimlaneBody=0;fillColor=none;collapsible=0;dropTarget=0;points=[[0,0.5],[1,0.5]];portConstraint=eastwest;top=0;left=0;right=0;bottom=0;" vertex="1" parent="PleD8S-8ki-CoMPB9bo7-143">
          <mxGeometry y="25" width="180" height="46" as="geometry" />
        </mxCell>
        <mxCell id="PleD8S-8ki-CoMPB9bo7-145" value="int" style="shape=partialRectangle;connectable=0;fillColor=none;top=0;left=0;bottom=0;right=0;align=left;spacingLeft=2;overflow=hidden;fontSize=11;" vertex="1" parent="PleD8S-8ki-CoMPB9bo7-144">
          <mxGeometry width="24" height="46" as="geometry">
            <mxRectangle width="24" height="46" as="alternateBounds" />
          </mxGeometry>
        </mxCell>
        <mxCell id="PleD8S-8ki-CoMPB9bo7-146" value="date_id" style="shape=partialRectangle;connectable=0;fillColor=none;top=0;left=0;bottom=0;right=0;align=left;spacingLeft=2;overflow=hidden;fontSize=11;" vertex="1" parent="PleD8S-8ki-CoMPB9bo7-144">
          <mxGeometry x="24" width="134" height="46" as="geometry">
            <mxRectangle width="134" height="46" as="alternateBounds" />
          </mxGeometry>
        </mxCell>
        <mxCell id="PleD8S-8ki-CoMPB9bo7-147" value="PK" style="shape=partialRectangle;connectable=0;fillColor=none;top=0;left=0;bottom=0;right=0;align=left;spacingLeft=2;overflow=hidden;fontSize=11;" vertex="1" parent="PleD8S-8ki-CoMPB9bo7-144">
          <mxGeometry x="158" width="22" height="46" as="geometry">
            <mxRectangle width="22" height="46" as="alternateBounds" />
          </mxGeometry>
        </mxCell>
        <mxCell id="PleD8S-8ki-CoMPB9bo7-148" style="shape=tableRow;horizontal=0;startSize=0;swimlaneHead=0;swimlaneBody=0;fillColor=none;collapsible=0;dropTarget=0;points=[[0,0.5],[1,0.5]];portConstraint=eastwest;top=0;left=0;right=0;bottom=0;" vertex="1" parent="PleD8S-8ki-CoMPB9bo7-143">
          <mxGeometry y="71" width="180" height="46" as="geometry" />
        </mxCell>
        <mxCell id="PleD8S-8ki-CoMPB9bo7-149" value="date" style="shape=partialRectangle;connectable=0;fillColor=none;top=0;left=0;bottom=0;right=0;align=left;spacingLeft=2;overflow=hidden;fontSize=11;" vertex="1" parent="PleD8S-8ki-CoMPB9bo7-148">
          <mxGeometry width="24" height="46" as="geometry">
            <mxRectangle width="24" height="46" as="alternateBounds" />
          </mxGeometry>
        </mxCell>
        <mxCell id="PleD8S-8ki-CoMPB9bo7-150" value="date" style="shape=partialRectangle;connectable=0;fillColor=none;top=0;left=0;bottom=0;right=0;align=left;spacingLeft=2;overflow=hidden;fontSize=11;" vertex="1" parent="PleD8S-8ki-CoMPB9bo7-148">
          <mxGeometry x="24" width="134" height="46" as="geometry">
            <mxRectangle width="134" height="46" as="alternateBounds" />
          </mxGeometry>
        </mxCell>
        <mxCell id="PleD8S-8ki-CoMPB9bo7-151" value="" style="shape=partialRectangle;connectable=0;fillColor=none;top=0;left=0;bottom=0;right=0;align=left;spacingLeft=2;overflow=hidden;fontSize=11;" vertex="1" parent="PleD8S-8ki-CoMPB9bo7-148">
          <mxGeometry x="158" width="22" height="46" as="geometry">
            <mxRectangle width="22" height="46" as="alternateBounds" />
          </mxGeometry>
        </mxCell>
        <mxCell id="PleD8S-8ki-CoMPB9bo7-152" style="shape=tableRow;horizontal=0;startSize=0;swimlaneHead=0;swimlaneBody=0;fillColor=none;collapsible=0;dropTarget=0;points=[[0,0.5],[1,0.5]];portConstraint=eastwest;top=0;left=0;right=0;bottom=0;" vertex="1" parent="PleD8S-8ki-CoMPB9bo7-143">
          <mxGeometry y="117" width="180" height="46" as="geometry" />
        </mxCell>
        <mxCell id="PleD8S-8ki-CoMPB9bo7-153" value="int" style="shape=partialRectangle;connectable=0;fillColor=none;top=0;left=0;bottom=0;right=0;align=left;spacingLeft=2;overflow=hidden;fontSize=11;" vertex="1" parent="PleD8S-8ki-CoMPB9bo7-152">
          <mxGeometry width="24" height="46" as="geometry">
            <mxRectangle width="24" height="46" as="alternateBounds" />
          </mxGeometry>
        </mxCell>
        <mxCell id="PleD8S-8ki-CoMPB9bo7-154" value="year" style="shape=partialRectangle;connectable=0;fillColor=none;top=0;left=0;bottom=0;right=0;align=left;spacingLeft=2;overflow=hidden;fontSize=11;" vertex="1" parent="PleD8S-8ki-CoMPB9bo7-152">
          <mxGeometry x="24" width="134" height="46" as="geometry">
            <mxRectangle width="134" height="46" as="alternateBounds" />
          </mxGeometry>
        </mxCell>
        <mxCell id="PleD8S-8ki-CoMPB9bo7-155" value="" style="shape=partialRectangle;connectable=0;fillColor=none;top=0;left=0;bottom=0;right=0;align=left;spacingLeft=2;overflow=hidden;fontSize=11;" vertex="1" parent="PleD8S-8ki-CoMPB9bo7-152">
          <mxGeometry x="158" width="22" height="46" as="geometry">
            <mxRectangle width="22" height="46" as="alternateBounds" />
          </mxGeometry>
        </mxCell>
        <mxCell id="PleD8S-8ki-CoMPB9bo7-156" style="shape=tableRow;horizontal=0;startSize=0;swimlaneHead=0;swimlaneBody=0;fillColor=none;collapsible=0;dropTarget=0;points=[[0,0.5],[1,0.5]];portConstraint=eastwest;top=0;left=0;right=0;bottom=0;" vertex="1" parent="PleD8S-8ki-CoMPB9bo7-143">
          <mxGeometry y="163" width="180" height="46" as="geometry" />
        </mxCell>
        <mxCell id="PleD8S-8ki-CoMPB9bo7-157" value="int" style="shape=partialRectangle;connectable=0;fillColor=none;top=0;left=0;bottom=0;right=0;align=left;spacingLeft=2;overflow=hidden;fontSize=11;" vertex="1" parent="PleD8S-8ki-CoMPB9bo7-156">
          <mxGeometry width="24" height="46" as="geometry">
            <mxRectangle width="24" height="46" as="alternateBounds" />
          </mxGeometry>
        </mxCell>
        <mxCell id="PleD8S-8ki-CoMPB9bo7-158" value="month" style="shape=partialRectangle;connectable=0;fillColor=none;top=0;left=0;bottom=0;right=0;align=left;spacingLeft=2;overflow=hidden;fontSize=11;" vertex="1" parent="PleD8S-8ki-CoMPB9bo7-156">
          <mxGeometry x="24" width="134" height="46" as="geometry">
            <mxRectangle width="134" height="46" as="alternateBounds" />
          </mxGeometry>
        </mxCell>
        <mxCell id="PleD8S-8ki-CoMPB9bo7-159" value="" style="shape=partialRectangle;connectable=0;fillColor=none;top=0;left=0;bottom=0;right=0;align=left;spacingLeft=2;overflow=hidden;fontSize=11;" vertex="1" parent="PleD8S-8ki-CoMPB9bo7-156">
          <mxGeometry x="158" width="22" height="46" as="geometry">
            <mxRectangle width="22" height="46" as="alternateBounds" />
          </mxGeometry>
        </mxCell>
        <mxCell id="PleD8S-8ki-CoMPB9bo7-160" style="shape=tableRow;horizontal=0;startSize=0;swimlaneHead=0;swimlaneBody=0;fillColor=none;collapsible=0;dropTarget=0;points=[[0,0.5],[1,0.5]];portConstraint=eastwest;top=0;left=0;right=0;bottom=0;" vertex="1" parent="PleD8S-8ki-CoMPB9bo7-143">
          <mxGeometry y="209" width="180" height="46" as="geometry" />
        </mxCell>
        <mxCell id="PleD8S-8ki-CoMPB9bo7-161" value="int" style="shape=partialRectangle;connectable=0;fillColor=none;top=0;left=0;bottom=0;right=0;align=left;spacingLeft=2;overflow=hidden;fontSize=11;" vertex="1" parent="PleD8S-8ki-CoMPB9bo7-160">
          <mxGeometry width="24" height="46" as="geometry">
            <mxRectangle width="24" height="46" as="alternateBounds" />
          </mxGeometry>
        </mxCell>
        <mxCell id="PleD8S-8ki-CoMPB9bo7-162" value="day" style="shape=partialRectangle;connectable=0;fillColor=none;top=0;left=0;bottom=0;right=0;align=left;spacingLeft=2;overflow=hidden;fontSize=11;" vertex="1" parent="PleD8S-8ki-CoMPB9bo7-160">
          <mxGeometry x="24" width="134" height="46" as="geometry">
            <mxRectangle width="134" height="46" as="alternateBounds" />
          </mxGeometry>
        </mxCell>
        <mxCell id="PleD8S-8ki-CoMPB9bo7-163" value="" style="shape=partialRectangle;connectable=0;fillColor=none;top=0;left=0;bottom=0;right=0;align=left;spacingLeft=2;overflow=hidden;fontSize=11;" vertex="1" parent="PleD8S-8ki-CoMPB9bo7-160">
          <mxGeometry x="158" width="22" height="46" as="geometry">
            <mxRectangle width="22" height="46" as="alternateBounds" />
          </mxGeometry>
        </mxCell>
        <mxCell id="PleD8S-8ki-CoMPB9bo7-164" value="belongs to" style="curved=1;startArrow=ERmandOne;startSize=10;;endArrow=ERzeroToMany;endSize=10;;exitX=0;exitY=0.66;entryX=0.5;entryY=0;rounded=0;" edge="1" parent="1" source="PleD8S-8ki-CoMPB9bo7-1" target="PleD8S-8ki-CoMPB9bo7-34">
          <mxGeometry relative="1" as="geometry">
            <Array as="points">
              <mxPoint x="315" y="456" />
            </Array>
          </mxGeometry>
        </mxCell>
        <mxCell id="PleD8S-8ki-CoMPB9bo7-165" value="happens on" style="curved=1;startArrow=ERmandOne;startSize=10;;endArrow=ERzeroToMany;endSize=10;;exitX=1;exitY=0.68;entryX=0.5;entryY=0;rounded=0;" edge="1" parent="1" source="PleD8S-8ki-CoMPB9bo7-1" target="PleD8S-8ki-CoMPB9bo7-143">
          <mxGeometry relative="1" as="geometry">
            <Array as="points">
              <mxPoint x="1433" y="456" />
            </Array>
          </mxGeometry>
        </mxCell>
        <mxCell id="PleD8S-8ki-CoMPB9bo7-166" value="has type" style="curved=1;startArrow=ERmandOne;startSize=10;;endArrow=ERzeroToMany;endSize=10;;exitX=0;exitY=0.99;entryX=0.5;entryY=0;rounded=0;" edge="1" parent="1" source="PleD8S-8ki-CoMPB9bo7-1" target="PleD8S-8ki-CoMPB9bo7-125">
          <mxGeometry relative="1" as="geometry">
            <Array as="points">
              <mxPoint x="719" y="456" />
            </Array>
          </mxGeometry>
        </mxCell>
        <mxCell id="PleD8S-8ki-CoMPB9bo7-167" value="has symbol" style="curved=1;startArrow=ERmandOne;startSize=10;;endArrow=ERzeroToMany;endSize=10;;exitX=1;exitY=0.99;entryX=0.5;entryY=0;rounded=0;" edge="1" parent="1" source="PleD8S-8ki-CoMPB9bo7-1" target="PleD8S-8ki-CoMPB9bo7-134">
          <mxGeometry relative="1" as="geometry">
            <Array as="points">
              <mxPoint x="1100" y="456" />
            </Array>
          </mxGeometry>
        </mxCell>
        <mxCell id="PleD8S-8ki-CoMPB9bo7-168" value="owned by" style="curved=1;startArrow=ERzeroToMany;startSize=10;;endArrow=ERmandOne;endSize=10;;exitX=0.16;exitY=1;entryX=0.5;entryY=0;rounded=0;" edge="1" parent="1" source="PleD8S-8ki-CoMPB9bo7-34" target="PleD8S-8ki-CoMPB9bo7-47">
          <mxGeometry relative="1" as="geometry">
            <Array as="points">
              <mxPoint x="137" y="816" />
            </Array>
          </mxGeometry>
        </mxCell>
        <mxCell id="PleD8S-8ki-CoMPB9bo7-169" value="has" style="curved=1;startArrow=ERzeroToMany;startSize=10;;endArrow=ERmandOne;endSize=10;;exitX=0.5;exitY=1;entryX=0.5;entryY=0;rounded=0;" edge="1" parent="1" source="PleD8S-8ki-CoMPB9bo7-47" target="PleD8S-8ki-CoMPB9bo7-76">
          <mxGeometry relative="1" as="geometry">
            <Array as="points" />
          </mxGeometry>
        </mxCell>
        <mxCell id="PleD8S-8ki-CoMPB9bo7-170" value="includes" style="curved=1;startArrow=ERmandOne;startSize=10;;endArrow=ERzeroToMany;endSize=10;;exitX=0.5;exitY=1;entryX=0.5;entryY=0;rounded=0;" edge="1" parent="1" source="PleD8S-8ki-CoMPB9bo7-76" target="PleD8S-8ki-CoMPB9bo7-98">
          <mxGeometry relative="1" as="geometry">
            <Array as="points" />
          </mxGeometry>
        </mxCell>
        <mxCell id="PleD8S-8ki-CoMPB9bo7-171" value="links to" style="curved=1;startArrow=ERzeroToMany;startSize=10;;endArrow=ERmandOne;endSize=10;;exitX=0.5;exitY=1;entryX=0.5;entryY=0;rounded=0;" edge="1" parent="1" source="PleD8S-8ki-CoMPB9bo7-98" target="PleD8S-8ki-CoMPB9bo7-89">
          <mxGeometry relative="1" as="geometry">
            <Array as="points" />
          </mxGeometry>
        </mxCell>
        <mxCell id="PleD8S-8ki-CoMPB9bo7-172" value="offers" style="curved=1;startArrow=ERmandOne;startSize=10;;endArrow=ERzeroToMany;endSize=10;;exitX=0.84;exitY=1;entryX=0.5;entryY=0;rounded=0;" edge="1" parent="1" source="PleD8S-8ki-CoMPB9bo7-34" target="PleD8S-8ki-CoMPB9bo7-116">
          <mxGeometry relative="1" as="geometry">
            <Array as="points">
              <mxPoint x="494" y="816" />
            </Array>
          </mxGeometry>
        </mxCell>
        <mxCell id="PleD8S-8ki-CoMPB9bo7-173" value="includes" style="curved=1;startArrow=ERzeroToMany;startSize=10;;endArrow=ERmandOne;endSize=10;;exitX=0.5;exitY=1;entryX=0.5;entryY=0;rounded=0;" edge="1" parent="1" source="PleD8S-8ki-CoMPB9bo7-116" target="PleD8S-8ki-CoMPB9bo7-107">
          <mxGeometry relative="1" as="geometry">
            <Array as="points" />
          </mxGeometry>
        </mxCell>
      </root>
    </mxGraphModel>
  </diagram>
</mxfile>
